<?xml version="1.0" standalone="no"?>
<!DOCTYPE svg PUBLIC "-//W3C//DTD SVG 20010904//EN"
 "http://www.w3.org/TR/2001/REC-SVG-20010904/DTD/svg10.dtd">
<svg version="1.0" xmlns="http://www.w3.org/2000/svg"
 width="1414.000000pt" height="2000.000000pt" viewBox="0 0 1414.000000 2000.000000"
 preserveAspectRatio="xMidYMid meet">

<g transform="translate(0.000000,2000.000000) scale(0.100000,-0.100000)"
fill="#000000" stroke="none">
<path d="M6381 18382 c-20 -16 -20 -22 -11 -137 5 -66 10 -199 10 -296 0 -188
5 -208 49 -194 26 8 30 23 37 124 7 99 -13 466 -26 492 -14 26 -37 30 -59 11z"/>
<path d="M8463 18338 c-4 -7 -10 -44 -13 -83 l-5 -70 -40 -5 c-52 -7 -65 -16
-65 -44 0 -33 23 -49 59 -41 17 4 32 2 36 -5 4 -6 8 -66 9 -133 2 -134 13
-169 66 -200 71 -43 182 -22 213 40 49 93 20 207 -43 173 -16 -8 -20 -21 -20
-59 0 -59 -22 -84 -71 -79 -46 4 -59 34 -59 138 0 116 8 126 105 135 68 6 76
9 81 31 11 42 -10 54 -92 54 -70 0 -75 2 -84 24 -5 14 -6 40 -3 59 3 19 0 44
-6 56 -13 23 -55 29 -68 9z"/>
<path d="M5511 18295 c-139 -43 -171 -214 -57 -305 13 -10 52 -17 117 -20 76
-4 102 -9 118 -24 28 -26 27 -67 -4 -96 -33 -31 -113 -34 -143 -7 -29 26 -76
19 -80 -11 -9 -59 93 -103 190 -82 100 21 148 74 148 164 0 89 -72 136 -209
136 -74 0 -101 20 -101 76 0 77 49 110 144 99 101 -11 108 -11 120 8 37 58
-123 99 -243 62z"/>
<path d="M6017 18188 c-84 -23 -137 -115 -137 -238 0 -157 113 -257 248 -221
44 12 63 41 41 67 -9 11 -25 13 -70 8 -56 -6 -59 -5 -89 25 -18 17 -30 39 -28
48 4 19 6 19 108 8 46 -5 63 -2 99 17 106 55 109 210 6 269 -38 22 -129 31
-178 17z m112 -79 c55 -19 68 -78 27 -125 -20 -24 -30 -28 -75 -27 -138 2
-133 145 5 162 6 0 25 -4 43 -10z"/>
<path d="M7211 18153 c-64 -32 -73 -60 -68 -208 6 -149 16 -185 49 -185 48 0
51 9 43 139 -6 101 -5 125 8 145 30 44 107 39 148 -10 9 -11 18 -60 24 -133 9
-110 11 -116 33 -119 41 -6 49 13 57 121 8 117 21 147 65 147 60 0 76 -42 66
-172 -7 -100 2 -128 38 -128 40 0 46 19 48 161 1 108 -2 140 -15 166 -47 88
-146 108 -221 43 l-33 -29 -24 25 c-13 14 -36 32 -51 40 -36 19 -125 17 -167
-3z"/>
<path d="M6748 18150 c-45 -13 -86 -49 -115 -98 -23 -39 -27 -58 -27 -117 0
-82 17 -121 71 -162 31 -24 45 -28 97 -27 61 1 111 18 135 48 22 26 36 19 59
-29 24 -49 45 -64 71 -48 24 15 25 47 1 93 -15 30 -22 65 -25 136 -5 117 -22
151 -97 188 -53 27 -116 33 -170 16z m121 -94 c32 -17 51 -54 51 -99 0 -44
-19 -77 -59 -104 -47 -32 -93 -30 -133 6 -28 25 -33 36 -33 74 0 54 25 94 76
119 41 22 62 22 98 4z"/>
<path d="M7954 18141 c-136 -62 -167 -269 -55 -364 17 -14 47 -29 66 -33 47
-8 122 11 164 44 33 24 35 25 45 8 39 -65 53 -81 75 -81 41 0 47 26 21 86 -18
40 -25 81 -30 156 -5 96 -8 105 -35 134 -63 66 -168 87 -251 50z m157 -99 c63
-56 43 -165 -36 -198 -55 -23 -83 -18 -122 21 -33 33 -35 39 -30 81 5 50 34
88 82 110 46 20 72 17 106 -14z"/>
<path d="M6773 17368 c-4 -7 -10 -44 -13 -83 l-5 -70 -40 -5 c-52 -7 -65 -16
-65 -44 0 -33 23 -49 59 -41 17 4 32 2 36 -5 4 -6 8 -66 9 -133 2 -134 13
-169 66 -200 71 -43 182 -22 213 40 49 93 20 207 -43 173 -16 -8 -20 -21 -20
-59 0 -59 -22 -84 -71 -79 -46 4 -59 34 -59 138 0 116 8 126 105 135 68 6 76
9 81 31 11 42 -10 54 -92 54 -70 0 -75 2 -84 24 -5 14 -6 40 -3 59 3 19 0 44
-6 56 -13 23 -55 29 -68 9z"/>
<path d="M5720 17363 c-111 -18 -120 -36 -119 -225 1 -207 10 -283 37 -311 21
-20 32 -22 130 -22 125 1 166 12 215 62 54 53 70 114 65 237 -7 153 -52 227
-157 256 -35 10 -122 11 -171 3z m166 -99 c51 -24 74 -81 74 -185 0 -135 -43
-189 -151 -189 -65 0 -90 23 -100 91 -9 68 -11 232 -3 254 16 41 119 58 180
29z"/>
<path d="M8308 17336 c-53 -19 -82 -40 -115 -82 -22 -30 -28 -49 -31 -105 -7
-124 49 -194 164 -206 46 -5 57 -10 65 -29 13 -37 1 -52 -56 -69 -71 -20 -109
-54 -125 -109 -15 -56 -6 -98 32 -142 107 -121 318 -6 281 155 -6 25 -18 64
-27 86 -8 22 -15 64 -16 94 0 45 5 59 31 93 36 45 58 99 59 143 1 135 -128
219 -262 171z m133 -105 c53 -53 38 -141 -30 -179 -75 -43 -142 -16 -156 61
-20 106 113 190 186 118z m-27 -477 c62 -62 -16 -158 -90 -109 -18 11 -24 24
-24 50 0 58 76 98 114 59z"/>
<path d="M6264 17171 c-136 -62 -167 -269 -55 -364 17 -14 47 -29 66 -33 47
-8 122 11 164 44 33 24 35 25 45 8 39 -65 53 -81 75 -81 41 0 47 26 21 86 -18
40 -25 81 -30 156 -5 96 -8 105 -35 134 -63 66 -168 87 -251 50z m157 -99 c63
-56 43 -165 -36 -198 -55 -23 -83 -18 -122 21 -33 33 -35 39 -30 81 5 50 34
88 82 110 46 20 72 17 106 -14z"/>
<path d="M7298 17180 c-45 -13 -86 -49 -115 -98 -23 -39 -27 -58 -27 -117 0
-82 17 -121 71 -162 31 -24 45 -28 97 -27 61 1 111 18 135 48 22 26 36 19 59
-29 24 -49 45 -64 71 -48 24 15 25 47 1 93 -15 30 -22 65 -25 136 -5 117 -22
151 -97 188 -53 27 -116 33 -170 16z m121 -94 c32 -17 51 -54 51 -99 0 -44
-19 -77 -59 -104 -47 -32 -93 -30 -133 6 -28 25 -33 36 -33 74 0 54 25 94 76
119 41 22 62 22 98 4z"/>
<path d="M7805 17178 c-89 -32 -122 -94 -112 -212 9 -101 36 -180 63 -184 38
-5 49 21 36 92 -29 154 -8 213 79 223 88 10 117 -43 118 -218 1 -83 12 -103
53 -97 22 3 23 8 26 88 7 184 -14 252 -93 297 -44 25 -117 29 -170 11z"/>
<path d="M5740 16071 c-107 -33 -170 -116 -170 -223 1 -129 97 -221 231 -220
200 1 295 242 150 382 -62 61 -138 83 -211 61z m109 -96 c32 -16 41 -33 41
-76 0 -67 -94 -96 -145 -44 -33 33 -32 70 4 106 33 32 58 36 100 14z"/>
<path d="M4835 15735 c-188 -34 -294 -104 -352 -231 -90 -198 -14 -439 166
-523 53 -24 67 -26 253 -31 218 -6 226 -8 276 -81 46 -66 8 -165 -80 -210 -52
-27 -179 -37 -233 -19 -21 7 -54 27 -74 45 -45 40 -75 48 -118 30 -38 -16 -68
-73 -59 -111 11 -41 65 -92 134 -126 58 -29 77 -33 167 -36 114 -5 191 11 290
57 84 39 129 82 167 159 31 62 33 74 33 167 0 114 -15 153 -82 216 -78 75
-167 99 -363 99 -121 0 -141 2 -180 23 -100 50 -127 173 -63 285 20 36 38 50
90 74 82 39 175 41 323 8 121 -28 146 -23 174 34 18 36 18 40 2 73 -40 84
-277 134 -471 98z"/>
<path d="M6605 15544 c-11 -2 -45 -9 -75 -15 -77 -16 -170 -60 -218 -104 -52
-47 -99 -141 -114 -226 -26 -160 52 -290 211 -350 50 -18 76 -21 232 -20 164
0 179 -1 203 -20 40 -32 49 -55 36 -94 -21 -63 -104 -93 -292 -104 -141 -8
-168 -19 -168 -73 0 -79 47 -103 205 -103 230 0 384 66 441 190 27 56 32 158
12 216 -22 66 -68 120 -122 145 -45 21 -66 24 -171 24 -215 0 -302 27 -339
105 -37 78 12 169 117 216 48 22 65 24 218 24 148 0 169 2 187 19 47 41 35
123 -22 154 -24 13 -62 17 -176 19 -80 1 -154 0 -165 -3z"/>
<path d="M5773 15459 c-36 -10 -83 -61 -83 -90 0 -11 8 -63 17 -117 14 -80 17
-153 15 -419 l-2 -322 26 -30 c22 -27 32 -31 76 -31 72 0 103 33 111 120 32
330 29 551 -10 749 -24 121 -69 163 -150 140z"/>
<path d="M8990 15381 c-88 -28 -140 -60 -201 -120 -113 -114 -163 -277 -139
-461 14 -115 53 -192 130 -263 77 -71 147 -99 250 -98 137 0 233 35 321 118
30 28 54 43 64 40 8 -4 35 -49 60 -102 53 -110 85 -140 145 -131 41 6 90 55
90 90 0 12 -18 60 -40 104 -61 123 -81 214 -74 331 8 116 -7 225 -41 290 -44
88 -163 174 -286 206 -75 20 -211 18 -279 -4z m259 -221 c80 -40 124 -119 124
-225 1 -144 -93 -254 -243 -286 -142 -30 -270 77 -270 227 0 136 77 243 209
290 55 20 136 17 180 -6z"/>
<path d="M8283 15330 c-12 -5 -29 -21 -39 -35 -16 -24 -16 -34 1 -159 23 -175
18 -354 -10 -411 -26 -51 -72 -77 -135 -77 -96 0 -163 89 -179 237 -8 68 -13
83 -36 102 -30 26 -73 30 -114 8 -33 -17 -38 -27 -47 -97 -10 -89 -42 -182
-70 -209 -38 -36 -103 -34 -143 5 -17 16 -35 44 -41 62 -14 41 -17 249 -7 386
9 106 9 107 -16 132 -33 33 -69 41 -103 24 -55 -27 -62 -48 -75 -243 -20 -321
10 -490 105 -572 47 -42 98 -58 186 -57 90 0 147 23 213 83 24 23 53 41 64 41
11 0 34 -18 52 -40 43 -53 98 -80 179 -87 124 -10 265 46 317 126 13 20 34 70
47 111 20 66 23 95 23 235 -1 163 -25 368 -47 405 -23 36 -78 49 -125 30z"/>
<path d="M7899 13873 l-32 -27 7 -111 c4 -60 11 -164 16 -230 6 -66 13 -327
17 -580 l6 -459 23 -23 c42 -42 123 -22 156 40 18 34 27 388 17 677 -10 301
-34 629 -50 677 -22 67 -101 85 -160 36z"/>
<path d="M9690 13742 c-56 -28 -61 -49 -45 -197 24 -220 35 -426 42 -765 6
-321 6 -324 29 -347 43 -42 153 -20 181 37 8 16 13 73 13 160 1 260 29 355
123 414 54 33 152 46 210 27 101 -34 174 -212 199 -484 10 -110 15 -130 34
-148 49 -46 156 -29 170 28 4 14 4 76 1 137 -16 266 -79 473 -178 581 -108
117 -340 141 -481 49 -71 -46 -80 -35 -103 127 -36 262 -48 335 -57 352 -9 18
-65 47 -90 47 -7 0 -29 -8 -48 -18z"/>
<path d="M5723 13720 c-22 -13 -34 -29 -38 -52 -13 -71 26 -698 65 -1048 26
-226 32 -246 76 -267 31 -15 39 -16 76 -3 23 8 50 27 61 42 19 26 20 32 8 145
-7 65 -15 128 -18 140 -4 16 4 31 26 54 29 28 37 31 79 27 83 -9 294 -150 358
-240 77 -109 122 -131 178 -87 38 30 49 63 36 108 -31 115 -227 301 -380 361
-97 38 -99 52 -17 104 90 58 184 217 194 326 5 56 4 61 -25 89 -32 32 -68 39
-102 21 -11 -6 -42 -55 -70 -109 -76 -148 -190 -253 -257 -236 -42 10 -52 58
-73 326 -11 137 -24 258 -30 269 -13 24 -61 50 -92 50 -13 0 -37 -9 -55 -20z"/>
<path d="M3917 13700 c-216 -39 -337 -126 -388 -279 -32 -95 -24 -222 19 -312
36 -76 100 -140 170 -172 41 -19 71 -22 242 -27 178 -5 198 -7 230 -27 62 -38
89 -118 59 -176 -40 -77 -120 -117 -236 -117 -72 0 -116 15 -159 55 -41 38
-70 48 -110 35 -42 -14 -64 -49 -64 -100 0 -34 7 -47 41 -81 66 -66 135 -92
259 -97 120 -5 197 11 292 59 118 60 179 143 197 272 25 179 -61 304 -244 352
-40 10 -106 15 -200 15 -126 0 -145 2 -185 23 -61 31 -83 65 -88 137 -6 84 3
121 43 168 73 85 196 104 401 61 61 -12 118 -20 127 -16 22 8 57 66 57 94 0
70 -139 131 -314 138 -56 2 -123 0 -149 -5z"/>
<path d="M5025 13439 c-247 -39 -386 -236 -388 -549 -2 -244 85 -411 260 -497
61 -30 85 -36 160 -40 199 -12 313 61 258 166 -21 42 -71 54 -132 30 -47 -18
-144 -14 -189 9 -82 42 -127 116 -105 175 13 33 36 35 117 6 41 -14 85 -21
145 -21 174 -2 295 64 355 194 26 57 29 73 29 168 0 99 -2 109 -33 173 -55
110 -148 166 -314 187 -91 11 -91 11 -163 -1z m214 -212 c66 -32 86 -65 85
-141 -1 -81 -32 -141 -89 -170 -32 -17 -58 -21 -130 -21 -153 0 -225 51 -225
160 1 156 198 250 359 172z"/>
<path d="M8788 13349 c-69 -16 -174 -76 -226 -130 -54 -55 -114 -164 -131
-239 -14 -59 -14 -192 0 -265 13 -73 45 -136 97 -196 139 -157 414 -163 582
-14 33 30 68 55 76 55 9 0 30 -34 55 -87 59 -129 106 -169 172 -144 76 29 86
89 33 187 -59 107 -68 150 -75 360 -6 190 -7 191 -40 258 -48 99 -154 176
-288 211 -62 16 -195 18 -255 4z m219 -220 c42 -16 93 -68 119 -124 34 -72 33
-152 -5 -231 -45 -96 -120 -148 -242 -169 -118 -21 -249 103 -249 235 0 51 25
129 54 168 32 44 103 98 152 116 47 17 132 20 171 5z"/>
<path d="M7110 13333 c-216 -36 -378 -214 -396 -436 -11 -131 42 -281 129
-369 91 -91 241 -145 372 -134 268 22 460 224 457 483 -1 127 -58 270 -133
338 -101 91 -286 142 -429 118z m177 -198 c67 -28 104 -65 136 -134 25 -54 31
-79 31 -141 1 -66 -3 -82 -30 -130 -73 -129 -229 -176 -362 -109 -87 43 -129
107 -139 212 -4 45 -1 80 11 121 41 140 225 234 353 181z"/>
<path d="M6800 11946 c0 -224 4 -346 10 -346 6 0 10 120 10 339 0 216 -4 342
-10 346 -7 4 -10 -112 -10 -339z"/>
<path d="M6870 11941 c0 -201 4 -311 10 -311 6 0 10 108 10 304 0 193 -4 307
-10 311 -7 4 -10 -100 -10 -304z"/>
<path d="M4541 11714 c-173 -27 -241 -79 -261 -200 -25 -149 4 -901 36 -970
24 -50 77 -91 142 -110 47 -14 85 -16 217 -11 269 10 382 44 489 151 105 105
156 256 156 464 0 203 -40 383 -108 488 -66 101 -158 161 -290 190 -84 17
-259 16 -381 -2z m398 -231 c61 -29 106 -84 134 -166 25 -74 38 -235 27 -362
-15 -192 -76 -274 -231 -309 -181 -42 -301 3 -327 121 -16 71 -32 308 -32 479
0 172 9 198 80 234 86 44 259 45 349 3z"/>
<path d="M7095 11464 c-11 -2 -45 -9 -75 -15 -77 -16 -170 -60 -218 -104 -52
-47 -99 -141 -114 -226 -26 -160 52 -290 211 -350 50 -18 76 -21 232 -20 164
0 179 -1 203 -20 40 -32 49 -55 36 -94 -21 -63 -104 -93 -292 -104 -141 -8
-168 -19 -168 -73 0 -79 47 -103 205 -103 230 0 384 66 441 190 27 56 32 158
12 216 -22 66 -68 120 -122 145 -45 21 -66 24 -171 24 -215 0 -302 27 -339
105 -37 78 12 169 117 216 48 22 65 24 218 24 148 0 169 2 187 19 47 41 35
123 -22 154 -24 13 -62 17 -176 19 -80 1 -154 0 -165 -3z"/>
<path d="M5878 11309 c-69 -16 -174 -76 -226 -130 -54 -55 -114 -164 -131
-239 -14 -59 -14 -192 0 -265 13 -73 45 -136 97 -196 139 -157 414 -163 582
-14 33 30 68 55 76 55 9 0 30 -34 55 -87 59 -129 106 -169 172 -144 76 29 86
89 33 187 -59 107 -68 150 -75 360 -6 190 -7 191 -40 258 -48 99 -154 176
-288 211 -62 16 -195 18 -255 4z m219 -220 c42 -16 93 -68 119 -124 34 -72 33
-152 -5 -231 -45 -96 -120 -148 -242 -169 -118 -21 -249 103 -249 235 0 51 25
129 54 168 32 44 103 98 152 116 47 17 132 20 171 5z"/>
<path d="M8110 11301 c-88 -28 -140 -60 -201 -120 -113 -114 -163 -277 -139
-461 14 -115 53 -192 130 -263 77 -71 147 -99 250 -98 137 0 233 35 321 118
30 28 54 43 64 40 8 -4 35 -49 60 -102 53 -110 85 -140 145 -131 41 6 90 55
90 90 0 12 -18 60 -40 104 -61 123 -81 214 -74 331 8 116 -7 225 -41 290 -44
88 -163 174 -286 206 -75 20 -211 18 -279 -4z m259 -221 c80 -40 124 -119 124
-225 1 -144 -93 -254 -243 -286 -142 -30 -270 77 -270 227 0 136 77 243 209
290 55 20 136 17 180 -6z"/>
<path d="M9575 11303 c-11 -2 -74 -30 -139 -61 l-119 -56 -46 18 c-130 50
-249 68 -292 46 -22 -13 -49 -61 -49 -90 0 -57 40 -91 121 -105 57 -10 98 -41
119 -88 14 -33 19 -80 24 -227 10 -281 14 -309 47 -342 39 -39 96 -39 141 1
l32 28 0 234 c1 225 2 236 25 282 28 58 90 106 170 133 44 15 82 18 178 17
l122 -2 27 31 c21 26 25 39 20 67 -9 55 -50 89 -131 106 -66 14 -205 18 -250
8z"/>
<path d="M3620 10529 c-359 -42 -673 -247 -817 -534 -43 -84 -73 -186 -80
-273 l-6 -73 -61 -31 c-421 -211 -627 -669 -487 -1085 l28 -84 -64 -29 c-97
-44 -199 -117 -288 -205 -135 -133 -226 -308 -255 -488 -15 -94 -8 -265 16
-352 17 -66 81 -209 113 -253 l20 -28 -70 -73 c-281 -292 -379 -654 -274
-1015 121 -417 499 -741 960 -820 53 -9 92 -21 97 -30 32 -58 95 -120 142
-141 36 -16 79 -52 144 -118 l94 -96 -4 -133 -3 -133 -74 -130 c-40 -71 -87
-149 -103 -173 -17 -24 -28 -46 -25 -48 9 -10 77 95 167 261 210 386 303 529
395 613 39 34 66 62 61 62 -9 0 -81 -54 -109 -82 -14 -15 -34 -18 -102 -18
l-85 0 0 178 c0 99 -3 234 -7 300 l-6 122 54 0 54 0 29 -105 c34 -122 109
-301 124 -298 6 2 9 -3 6 -11 -6 -15 22 -41 30 -28 3 5 -1 24 -10 41 -9 18
-17 37 -18 44 -1 7 -10 30 -19 51 -10 22 -16 44 -14 50 2 6 -3 16 -11 22 -9 7
-15 32 -16 76 -1 41 -8 75 -19 91 -8 13 -13 34 -10 46 3 11 -2 36 -10 53 -9
18 -19 46 -23 61 -3 16 -12 31 -18 33 -7 3 -13 21 -14 41 -2 21 -8 43 -13 50
-6 6 -8 21 -4 32 4 12 0 30 -9 43 -9 12 -16 32 -16 45 0 12 -4 24 -9 27 -8 6
-26 83 -22 100 1 5 -2 30 -8 55 -7 35 -5 75 8 164 10 64 16 117 14 117 -3 0 3
7 11 16 9 8 16 21 16 29 0 7 7 16 16 19 8 3 12 10 9 16 -3 5 -1 10 4 10 6 0
11 6 11 14 0 8 12 38 26 68 15 29 31 62 36 74 5 11 16 21 24 21 16 0 19 -13 5
-21 -12 -8 -2 -46 13 -46 6 0 0 -9 -14 -20 l-25 -20 25 9 c14 5 30 10 35 12 6
2 9 9 9 15 -1 6 17 12 41 12 37 2 41 0 40 -20 -1 -16 5 -25 19 -29 19 -6 19
-7 -9 -19 l-30 -13 34 -6 c19 -3 36 -12 39 -20 3 -9 0 -11 -7 -7 -7 4 -23 1
-36 -8 -13 -9 -31 -16 -39 -16 -7 0 -17 -7 -20 -16 -3 -8 -10 -12 -16 -9 -5 3
-10 0 -10 -8 0 -7 -11 -24 -25 -37 -14 -13 -23 -30 -21 -37 3 -7 2 -13 -3 -13
-5 0 -11 -12 -14 -27 -4 -20 2 -32 26 -55 17 -15 35 -28 40 -28 5 0 23 -11 40
-24 46 -34 182 -76 247 -76 30 0 63 -7 73 -14 17 -13 57 -11 57 3 0 9 92 47
105 43 5 -2 28 -6 49 -8 37 -5 42 -2 93 51 29 31 53 60 53 65 0 4 8 25 17 46
9 22 17 41 18 44 7 24 20 42 36 51 20 10 72 2 64 -10 -2 -4 4 -13 15 -21 10
-7 16 -18 14 -25 -3 -6 8 -41 24 -76 21 -46 44 -78 78 -107 27 -22 51 -37 54
-33 7 11 59 11 66 0 2 -4 12 -5 22 -2 9 3 14 3 10 -2 -8 -8 97 -64 121 -65 11
0 11 3 1 15 -10 12 -10 15 4 15 9 0 16 5 16 11 0 6 7 8 16 5 8 -3 22 0 30 8 7
8 36 19 64 25 64 14 113 38 107 54 -6 18 53 57 85 57 22 0 31 6 39 27 8 22 7
28 -8 37 -35 19 -72 67 -66 84 6 15 5 16 -13 2 -10 -8 -21 -16 -23 -17 -2 -1
2 -10 10 -19 13 -15 11 -16 -16 -11 -17 3 -60 11 -97 17 -64 12 -86 28 -72 52
3 5 17 7 29 4 13 -3 27 -1 30 5 8 11 82 8 103 -5 11 -7 11 -4 1 12 -8 13 -22
20 -38 19 -23 -2 -25 1 -23 31 3 27 0 32 -18 32 -16 0 -20 4 -16 15 4 11 -1
15 -19 15 -13 0 -27 5 -30 10 -9 15 14 40 31 33 7 -3 17 2 20 11 3 9 16 16 28
16 13 0 26 3 29 7 10 9 76 6 114 -5 26 -8 31 -8 26 4 -3 8 0 14 6 14 14 0 -10
50 -33 69 -9 7 -14 16 -12 20 3 4 -11 15 -30 26 -19 10 -34 23 -34 28 0 5 -7
15 -16 22 -10 6 -18 31 -21 61 -4 41 -2 47 9 33 9 -11 21 -13 40 -8 24 6 32 2
59 -33 26 -32 36 -38 55 -34 24 6 64 -22 64 -45 0 -7 7 -17 15 -23 22 -16 45
-117 45 -199 1 -68 13 -190 26 -249 4 -20 10 -25 22 -21 24 9 32 23 32 61 0
60 69 102 149 90 30 -4 30 -4 26 41 -3 25 -7 84 -9 131 -3 47 -8 93 -11 103
-7 16 10 17 259 17 l266 0 0 -1065 0 -1065 -42 0 c-33 0 -39 3 -30 12 19 19
14 54 -14 87 -27 32 -154 101 -186 101 -17 0 -17 1 -2 24 8 14 14 35 12 48 -2
18 -10 24 -38 26 -48 5 -133 -15 -208 -49 -90 -40 -119 -64 -154 -126 -22 -38
-34 -51 -41 -44 -19 19 -40 12 -109 -34 -67 -45 -68 -45 -155 -45 l-88 0 -53
100 c-42 78 -52 107 -47 129 5 26 4 28 -24 28 l-31 0 19 -31 c38 -63 159 -292
165 -313 6 -17 0 -29 -21 -49 -28 -26 -28 -26 12 1 67 47 126 97 121 102 -2 3
-23 -10 -45 -28 -23 -18 -42 -30 -44 -28 -13 18 -37 59 -37 65 0 3 33 4 73 3
41 -2 81 2 92 8 17 10 26 6 63 -35 l44 -47 -36 44 c-20 25 -36 50 -36 56 0 12
99 75 118 75 12 0 216 -224 241 -265 13 -21 12 -27 -22 -73 -60 -81 -55 -82
-136 17 -39 49 -86 101 -103 117 -17 16 0 -9 38 -54 38 -46 83 -102 99 -124
l30 -40 -90 -87 c-50 -47 -134 -116 -185 -153 -110 -78 -238 -153 -246 -145
-4 3 -15 61 -25 129 -33 208 -43 264 -47 246 -4 -23 24 -224 54 -383 37 -197
36 -184 11 -209 -21 -21 -34 -23 -195 -30 -150 -6 -175 -5 -197 10 -14 9 -25
12 -25 6 0 -5 7 -12 14 -15 41 -16 22 -161 -24 -184 -31 -16 -257 -18 -296 -3
l-27 11 7 79 c3 44 9 86 12 94 6 15 47 26 100 26 19 0 34 5 34 11 0 6 -11 8
-27 5 -16 -3 -47 -8 -71 -11 -27 -5 -46 -14 -53 -26 -9 -19 -21 -20 -222 -18
-117 1 -267 7 -335 14 -130 12 -161 25 -191 77 -13 22 -11 30 13 84 19 42 30
86 36 154 6 64 22 134 48 215 22 66 42 129 46 140 3 11 -4 -2 -17 -30 -14 -27
-37 -93 -52 -145 -15 -52 -32 -104 -38 -115 -6 -11 -10 -47 -8 -80 2 -47 -3
-72 -23 -115 -36 -77 -34 -111 9 -149 42 -36 43 -55 20 -251 -20 -175 -43
-394 -55 -535 -6 -66 -35 -334 -65 -595 -82 -708 -89 -856 -45 -898 15 -14 17
-25 10 -67 -5 -27 -9 -80 -9 -117 -1 -57 3 -71 23 -95 20 -23 34 -28 92 -34
38 -3 116 -5 174 -5 183 2 211 40 175 239 -11 66 -11 82 0 105 8 15 44 132 80
261 37 129 109 357 162 505 52 149 118 343 145 431 27 88 53 164 58 168 9 10
27 -84 75 -398 54 -348 176 -910 212 -978 22 -40 42 -128 42 -188 1 -29 8 -55
19 -68 59 -72 412 -108 518 -53 91 47 71 127 -69 278 l-54 59 -7 205 c-4 113
-11 486 -16 830 -5 344 -16 744 -25 890 -11 181 -13 266 -6 268 6 2 21 12 33
22 20 16 23 27 21 87 -1 37 -6 80 -12 94 -9 25 -7 28 42 54 153 79 394 266
488 379 l54 65 203 0 202 1 0 -37 c0 -21 -7 -128 -15 -237 -14 -187 -14 -218
1 -203 4 3 18 171 32 372 l26 365 63 0 c35 0 63 -1 63 -3 0 -2 -11 -163 -25
-358 -14 -195 -25 -360 -25 -366 0 -22 18 -14 22 10 l3 22 1085 0 1085 0 3
-22 c2 -13 8 -23 13 -23 6 0 8 26 4 68 -7 86 -45 631 -45 655 0 16 8 18 63 15
l62 -3 25 -362 c23 -326 30 -386 44 -372 3 3 -2 88 -9 189 -8 102 -15 209 -15
238 l0 52 754 0 754 0 43 -57 c102 -136 302 -307 490 -418 50 -30 95 -56 99
-57 5 -2 2 -37 -5 -78 -15 -86 -4 -132 37 -150 23 -11 23 -13 16 -125 -20
-342 -28 -612 -33 -1084 -3 -288 -7 -526 -9 -530 -2 -3 -5 -107 -7 -231 l-3
-225 -69 -75 c-37 -41 -79 -98 -93 -127 -23 -47 -25 -56 -14 -88 20 -59 66
-75 225 -75 141 0 239 16 304 50 47 23 62 52 60 113 -2 46 14 110 42 172 36
81 156 637 205 955 42 276 64 401 73 418 4 7 24 -44 46 -115 21 -70 83 -254
138 -408 90 -256 200 -609 242 -777 10 -37 23 -72 31 -79 9 -7 10 -18 5 -32
-5 -12 -14 -64 -21 -114 -10 -84 -10 -95 6 -122 31 -52 64 -61 234 -61 161 0
193 7 224 52 19 27 20 67 4 171 -11 75 -11 78 12 99 23 21 23 23 17 192 -4 94
-22 308 -41 476 -60 518 -94 832 -101 915 -4 44 -20 197 -36 340 -16 143 -29
273 -29 289 0 21 10 38 37 61 43 37 46 72 13 149 -12 26 -24 73 -27 104 l-6
57 86 -82 c48 -44 130 -118 183 -162 93 -77 133 -99 120 -66 -9 23 1 18 45
-22 84 -79 241 -153 324 -153 35 0 51 6 77 29 32 28 33 32 33 105 0 42 1 76 2
76 9 0 131 -78 157 -100 24 -22 61 -36 152 -59 149 -38 290 -61 370 -61 58 0
66 3 141 54 76 52 292 171 381 210 51 23 66 39 58 64 -13 40 -79 57 -226 57
-115 0 -144 -4 -199 -23 -35 -13 -65 -21 -68 -18 -8 7 115 94 195 138 87 48
82 58 -28 58 -75 0 -231 -29 -271 -50 -31 -17 -36 -3 -8 26 26 28 220 125 396
199 159 66 161 79 14 97 -153 19 -281 -20 -392 -119 -52 -47 -52 -48 -45 -18
4 16 27 75 51 130 23 55 45 109 48 120 3 11 8 30 12 43 5 18 2 22 -18 22 -32
0 -88 -38 -166 -113 -132 -129 -180 -243 -190 -457 -7 -132 -7 -134 -20 -90
-48 165 -221 383 -360 455 -33 17 -35 17 -48 -1 -17 -23 -17 -24 7 -94 35
-103 156 -294 255 -399 27 -30 43 -52 35 -48 -8 3 -43 17 -77 32 -34 14 -96
31 -137 37 -72 12 -73 13 -60 33 12 18 12 24 -1 42 -15 22 -121 63 -162 63
-18 0 -23 6 -23 24 0 21 -39 87 -130 221 -15 22 -62 103 -105 180 -139 250
-246 435 -256 440 -31 20 9 25 186 25 190 0 195 1 185 19 -11 22 -101 115
-172 178 -43 39 -47 47 -58 115 -7 40 -19 88 -26 107 -14 32 -13 36 7 55 14
14 23 17 26 9 7 -19 35 15 65 78 33 70 48 82 82 69 33 -12 46 -13 46 -1 0 5
-9 11 -20 14 -36 9 -33 34 15 113 61 101 98 183 135 302 50 164 63 264 57 462
-2 96 -8 183 -12 193 -6 14 -2 17 24 17 41 0 109 28 121 50 8 16 4 20 -25 30
-46 15 -76 54 -115 147 -17 43 -54 130 -81 194 l-49 116 0 289 c0 179 -4 304
-11 329 -12 43 -79 144 -124 185 -15 14 -50 63 -78 110 -92 153 -273 313 -430
380 -40 17 -56 30 -53 40 2 8 16 55 30 104 121 410 -91 850 -510 1059 l-51 26
-6 68 c-36 401 -393 736 -858 804 -164 24 -503 -7 -516 -48 -3 -7 20 -5 69 8
96 26 325 36 438 20 467 -69 812 -394 847 -797 l6 -72 51 -23 c247 -114 452
-353 515 -599 43 -169 36 -316 -21 -483 -16 -49 -28 -90 -26 -91 2 -1 32 -15
68 -31 103 -48 209 -122 291 -204 77 -78 137 -157 126 -167 -3 -4 -28 13 -55
37 -27 24 -64 49 -82 56 -32 12 -32 12 -14 -8 17 -19 17 -20 -2 -13 -10 4 -26
12 -34 19 -8 6 -34 20 -57 31 -24 10 -43 23 -43 27 0 5 -4 6 -9 3 -5 -3 -28 5
-52 18 -24 13 -61 26 -83 29 l-38 6 47 -48 c27 -27 52 -56 57 -65 18 -32 -9
-15 -54 34 -45 48 -76 66 -64 35 4 -11 -2 -15 -24 -15 -17 0 -30 4 -30 9 0 5
-14 14 -31 20 -42 14 -48 13 -25 -4 16 -12 17 -17 6 -30 -16 -19 -31 -20 -24
-1 4 10 -6 20 -32 31 -46 19 -56 12 -20 -16 16 -12 25 -27 22 -36 -4 -8 -1
-11 5 -8 14 10 49 -24 49 -48 0 -13 -5 -17 -16 -13 -12 4 -14 1 -9 -14 5 -15
3 -18 -9 -14 -9 3 -16 15 -16 25 0 11 -7 19 -16 19 -11 0 -14 -6 -9 -20 3 -11
4 -20 1 -20 -11 0 -72 47 -103 78 -18 19 -37 31 -42 27 -6 -3 -18 6 -27 20 -9
14 -26 25 -37 25 -20 0 -20 0 -1 -15 10 -8 14 -15 7 -15 -9 0 -10 -15 -6 -50
3 -27 3 -50 0 -50 -4 0 -16 18 -27 40 -11 22 -22 40 -24 40 -8 0 14 -89 33
-138 12 -29 21 -58 21 -65 0 -16 -36 38 -60 91 -10 23 -26 52 -36 65 l-16 22
6 -27 c8 -34 -7 -36 -28 -6 l-16 22 0 -22 c0 -13 -4 -20 -10 -17 -5 3 -10 -3
-10 -14 0 -32 -20 -25 -21 7 -1 22 -2 23 -6 5 -2 -12 1 -31 6 -42 13 -24 4
-32 -26 -20 -17 6 -23 16 -23 39 0 16 -4 30 -10 30 -5 0 -10 -14 -10 -31 0
-25 -3 -30 -18 -27 -10 3 -27 -1 -37 -8 -25 -18 -31 -18 -55 6 l-20 20 -6 -30
c-4 -17 -11 -33 -15 -36 -5 -3 -9 -24 -9 -47 0 -39 -1 -40 -14 -21 -8 11 -18
36 -23 55 -8 28 -13 33 -34 30 -23 -3 -23 -2 -6 16 21 24 12 36 -17 20 -11 -6
-28 -12 -36 -12 -26 0 -37 -42 -33 -130 3 -86 -8 -108 -22 -42 -4 17 -16 51
-26 74 -11 23 -19 47 -19 52 0 6 -4 11 -10 11 -5 0 -6 -8 -3 -17 5 -13 3 -15
-13 -8 -39 16 -75 17 -114 1 -37 -15 -44 -13 -41 7 2 15 -25 6 -71 -23 -27
-17 -48 -35 -48 -40 0 -6 -8 -10 -18 -10 -10 0 -25 -11 -32 -25 -7 -14 -20
-25 -28 -25 -10 0 -12 -7 -9 -22 6 -24 -18 -67 -30 -54 -4 4 -1 11 7 16 8 5
12 11 9 15 -6 5 -16 -4 -82 -73 -15 -16 -27 -37 -27 -46 0 -10 -4 -14 -10 -11
-6 4 -10 -6 -10 -24 0 -16 -4 -32 -9 -35 -5 -3 -11 -14 -14 -25 -3 -15 -1 -18
12 -14 15 5 15 4 0 -11 -18 -20 -51 -11 -47 13 2 11 -6 17 -29 19 -38 4 -40 0
-14 -42 21 -34 22 -49 3 -82 -21 -38 -33 -111 -22 -138 11 -29 3 -59 -12 -50
-5 3 -7 18 -4 33 l5 26 -10 -25 c-6 -14 -17 -39 -24 -55 -16 -38 -149 -181
-186 -200 -24 -13 -154 -15 -869 -15 l-840 0 0 327 0 328 170 -170 170 -170
60 60 c33 33 60 64 60 70 0 5 -104 114 -230 240 l-230 230 0 386 0 386 143 6
c144 7 1937 10 1937 4 0 -8 130 -813 136 -839 9 -43 27 -34 19 10 -6 35 -2 42
51 102 125 144 307 401 302 427 -8 42 -45 25 -155 -69 -59 -51 -136 -120 -171
-154 -35 -34 -65 -56 -67 -50 -2 6 -20 115 -39 241 -34 228 -35 235 -45 739
-7 351 -14 513 -22 522 -6 8 -19 14 -29 14 -42 0 -45 -18 -53 -369 -4 -185
-10 -355 -13 -379 l-5 -43 -92 90 c-110 108 -314 271 -340 271 -26 0 -33 -29
-15 -61 37 -64 198 -270 272 -346 l79 -83 -793 0 -793 0 6 73 c31 351 306 655
647 717 36 6 75 13 87 16 21 4 22 9 22 92 -1 130 32 244 107 372 29 51 131
174 158 192 6 5 2 8 -10 8 -12 0 -38 -20 -65 -52 -138 -162 -209 -329 -212
-506 l-2 -87 -57 -7 c-270 -34 -532 -243 -642 -513 -29 -72 -56 -197 -56 -260
l0 -45 -150 0 -150 0 0 655 0 655 120 0 120 0 0 70 c0 40 -4 70 -10 70 -6 0
-10 -27 -10 -60 l0 -60 -1240 0 -1240 0 0 80 c0 76 1 80 22 80 l22 0 -22 16
c-40 28 -52 5 -52 -102 l0 -94 120 0 120 0 0 -655 0 -655 -136 0 -136 0 5 28
c10 49 -14 215 -44 307 -78 235 -266 431 -495 514 -44 16 -102 32 -129 36 -86
12 -82 6 -90 106 -8 111 -35 212 -81 304 -55 113 -151 231 -171 211 -2 -2 16
-26 40 -53 109 -124 172 -275 190 -453 6 -63 11 -116 12 -117 1 -2 37 -9 81
-17 161 -28 290 -94 411 -209 163 -155 253 -360 253 -577 l0 -80 -827 0 -826
0 119 123 c108 110 269 310 312 388 16 29 16 31 -2 44 -17 13 -23 13 -47 -3
-66 -42 -202 -155 -300 -250 l-107 -103 -6 113 c-3 62 -9 232 -12 378 -4 146
-10 273 -16 283 -5 9 -20 17 -33 17 -13 0 -29 -8 -34 -17 -5 -10 -14 -227 -21
-483 l-12 -465 -39 -245 c-22 -135 -42 -257 -45 -273 -6 -27 -6 -27 -85 47
-133 125 -258 226 -273 220 -8 -3 -17 -12 -20 -21 -6 -15 121 -210 207 -318
l48 -59 -61 -23 c-53 -20 -67 -22 -105 -12 -36 9 -45 16 -45 33 0 54 -379 473
-415 459 -8 -3 -15 -11 -15 -17 0 -20 153 -248 233 -349 l73 -92 -250 0 c-273
-1 -337 -10 -500 -72 -258 -98 -444 -350 -515 -699 -11 -53 -24 -100 -28 -104
-4 -3 -34 -26 -67 -50 -69 -52 -63 -56 -132 85 -156 318 -88 698 171 960 79
80 220 179 309 215 31 13 56 27 56 31 0 4 -14 50 -32 101 -31 89 -32 99 -33
253 0 141 3 169 24 235 74 238 246 440 474 560 l84 44 7 78 c29 352 313 652
721 764 92 26 115 28 290 28 168 1 200 -2 274 -22 46 -12 85 -21 87 -20 19 20
-89 52 -231 68 -103 11 -158 11 -265 -1z m4230 -1014 l0 -495 -1005 0 -1005 0
0 495 0 495 1005 0 1005 0 0 -495z m0 -1050 c0 -294 -3 -535 -8 -535 -4 0
-225 218 -492 485 -267 267 -488 485 -492 485 -4 0 -231 -225 -504 -500 -273
-275 -501 -500 -506 -500 -4 0 -8 248 -8 550 l0 550 1005 0 1005 0 0 -535z
m-262 -318 l722 -722 -45 -45 -45 -45 -678 678 c-372 372 -682 677 -689 677
-6 0 -312 -304 -679 -675 -367 -371 -672 -675 -679 -675 -6 0 -29 18 -50 40
l-39 40 724 725 c399 399 727 725 730 725 3 0 330 -325 728 -723z m-1770 128
l2 -400 -220 -220 c-121 -121 -220 -224 -220 -230 0 -13 102 -115 115 -115 5
0 81 71 167 157 l158 158 0 -323 0 -322 -204 0 c-172 0 -205 2 -210 15 -3 9
-18 15 -34 15 -39 0 -140 52 -180 93 -32 33 -32 33 -20 89 14 68 -4 153 -56
262 -63 130 -237 307 -473 482 -133 98 -163 114 -268 142 -44 12 -109 32 -145
46 -41 14 -101 26 -160 30 -110 8 -348 -7 -380 -24 -49 -26 -49 -18 -4 258 23
145 45 270 48 278 5 12 150 14 1043 12 l1038 -3 3 -400z m1539 -107 l493 -493
0 -447 0 -448 55 0 c30 0 55 -4 55 -10 0 -7 -379 -10 -1116 -10 -741 0 -1113
3 -1109 10 3 6 28 10 54 10 l48 0 5 436 6 437 503 503 c277 277 506 504 509
504 3 0 227 -222 497 -492z m-4083 -135 l71 -16 -70 -32 c-129 -59 -251 -175
-319 -303 l-33 -64 -12 46 c-7 28 -17 46 -25 46 -21 0 -39 -101 -33 -184 6
-87 -7 -119 -67 -169 -93 -77 -168 -202 -275 -459 -74 -175 -105 -223 -151
-233 -26 -6 -39 0 -84 34 -60 46 -66 48 -66 23 0 -10 63 -80 143 -159 l143
-141 12 -64 c16 -84 65 -181 119 -236 42 -42 44 -46 32 -74 -16 -39 -14 -133
5 -186 22 -62 70 -126 121 -163 l45 -32 0 -74 c0 -40 -3 -73 -6 -73 -4 0 -48
37 -98 83 -192 174 -486 417 -505 417 -6 0 -11 -6 -11 -13 0 -17 369 -381 514
-507 l108 -95 -6 -80 c-3 -44 -6 -131 -6 -192 l0 -113 -95 0 c-124 0 -158 16
-222 106 -26 35 -56 66 -68 69 -11 2 -49 9 -85 15 -237 41 -462 155 -635 321
-181 174 -288 372 -325 601 -18 109 -8 312 20 408 30 107 100 245 170 338 67
89 200 219 278 272 41 28 53 42 57 70 54 312 178 546 361 676 122 87 274 139
451 153 151 12 463 3 547 -16z m7293 -115 c-3 -8 -6 -5 -6 6 -1 11 2 17 5 13
3 -3 4 -12 1 -19z m-6646 -51 c-10 -9 -11 -8 -5 6 3 10 9 15 12 12 3 -3 0 -11
-7 -18z m-751 9 c0 -2 -7 -7 -16 -10 -8 -3 -12 -2 -9 4 6 10 25 14 25 6z m717
-58 c-3 -7 -5 -2 -5 12 0 14 2 19 5 13 2 -7 2 -19 0 -25z m108 -9 c-4 -5 -2
-9 3 -9 9 0 35 -50 29 -56 -8 -8 -36 32 -43 60 -5 21 -4 27 5 22 6 -4 9 -12 6
-17z m-541 -13 c-3 -9 -10 -16 -15 -16 -5 0 -4 9 3 20 14 22 21 20 12 -4z m56
4 c-6 -11 -13 -20 -16 -20 -2 0 0 9 6 20 6 11 13 20 16 20 2 0 0 -9 -6 -20z
m1084 -6 c3 -8 2 -12 -4 -9 -6 3 -10 10 -10 16 0 14 7 11 14 -7z m120 -86 c3
-16 2 -28 -2 -28 -5 0 -12 17 -15 38 -3 20 -8 46 -11 57 -4 11 0 7 7 -10 8
-16 17 -42 21 -57z m-817 50 c-3 -8 -6 -5 -6 6 -1 11 2 17 5 13 3 -3 4 -12 1
-19z m-403 -35 c-6 -30 -4 -35 8 -30 12 4 15 -1 14 -22 -1 -16 -6 -34 -12 -42
-6 -8 -14 -21 -18 -29 -3 -8 -4 -3 -1 13 3 17 1 27 -6 27 -8 0 -10 14 -5 48 4
26 8 55 9 64 1 9 5 14 9 11 5 -2 6 -21 2 -40z m737 0 c-12 -20 -14 -14 -5 12
4 9 9 14 11 11 3 -2 0 -13 -6 -23z m-850 -16 c-10 -9 -11 -8 -5 6 3 10 9 15
12 12 3 -3 0 -11 -7 -18z m1253 -27 c10 -13 9 -13 -6 -1 -10 7 -17 23 -17 35
1 20 2 20 6 1 3 -11 10 -27 17 -35z m-1357 10 c1 -11 -2 -20 -8 -20 -10 0 -12
23 -2 33 9 9 9 10 10 -13z m468 -41 c-9 -27 -29 -24 -21 4 3 12 6 31 6 42 1
18 2 17 11 -4 5 -13 7 -32 4 -42z m-354 18 c-10 -9 -11 -8 -5 6 3 10 9 15 12
12 3 -3 0 -11 -7 -18z m205 -32 c2 -20 -1 -44 -6 -53 -9 -14 -10 -10 -7 18 5
34 5 34 -6 8 -18 -46 -27 -31 -12 20 8 26 15 49 15 51 0 18 12 -14 16 -44z
m94 -9 c-29 -48 -35 -45 -9 4 12 23 24 39 26 36 3 -3 -5 -21 -17 -40z m434 25
c11 -11 35 -32 51 -46 27 -24 26 -24 -16 3 -45 30 -78 62 -64 62 4 0 17 -9 29
-19z m-798 -23 c-18 -26 -22 -17 -5 14 6 11 13 17 16 15 3 -3 -2 -16 -11 -29z
m1494 -41 c0 -5 -7 -4 -15 3 -8 7 -15 20 -15 29 1 13 3 13 15 -3 8 -11 15 -24
15 -29z m-1077 -9 c-3 -24 -9 -47 -13 -51 -7 -8 -5 18 6 71 8 38 12 24 7 -20z
m24 -40 c-2 -18 -4 -6 -4 27 0 33 2 48 4 33 2 -15 2 -42 0 -60z m1116 2 c-6
-7 -43 43 -43 59 0 8 11 -1 23 -20 13 -19 22 -36 20 -39z m-607 3 c-17 -50
-56 -117 -56 -95 0 25 -17 11 -39 -33 -12 -25 -24 -45 -27 -45 -7 0 7 51 22
79 8 14 14 33 14 41 0 13 1 13 10 0 9 -13 12 -13 24 2 7 10 15 15 18 12 4 -3
5 1 5 8 -2 15 35 90 41 84 2 -3 -3 -26 -12 -53z m-995 20 c-12 -20 -14 -14 -5
12 4 9 9 14 11 11 3 -2 0 -13 -6 -23z m93 -5 c-22 -44 -24 -46 -22 -15 1 14 5
24 9 21 4 -2 9 3 13 11 3 8 8 15 11 15 3 0 -2 -15 -11 -32z m709 15 c-6 -16
-5 -17 13 -3 18 14 18 14 5 -3 -15 -19 -39 -8 -27 12 11 17 16 13 9 -6z m6773
-40 c4 -29 3 -43 -5 -43 -6 0 -11 12 -11 28 0 15 -3 38 -6 52 -5 18 -4 22 4
15 6 -5 14 -29 18 -52z m-6087 13 c-3 -3 -11 5 -18 17 -13 21 -12 21 5 5 10
-10 16 -20 13 -22z m49 -6 c-2 -7 -10 1 -17 16 -12 27 -11 28 4 12 10 -9 16
-21 13 -28z m-1188 23 c0 -5 -10 -19 -21 -33 l-21 -25 18 33 c18 32 24 38 24
25z m47 -15 c-3 -8 -6 -5 -6 6 -1 11 2 17 5 13 3 -3 4 -12 1 -19z m233 2 c6
-11 8 -20 6 -20 -3 0 -10 9 -16 20 -6 11 -8 20 -6 20 3 0 10 -9 16 -20z m6833
-27 c4 -20 2 -33 -3 -33 -14 0 -32 50 -25 68 8 21 21 4 28 -35z m-7557 9 c-18
-16 -18 -16 -6 6 6 13 14 21 18 18 3 -4 -2 -14 -12 -24z m950 -4 c-18 -26 -22
-17 -5 14 6 11 13 17 16 15 3 -3 -2 -16 -11 -29z m40 1 c-6 -32 -45 -103 -52
-96 -3 3 32 102 42 119 11 18 16 6 10 -23z m768 15 c9 -24 2 -26 -12 -4 -7 11
-8 20 -3 20 5 0 12 -7 15 -16z m5676 -36 c0 -5 -7 -11 -15 -14 -21 -9 -19 -24
4 -24 20 0 31 -19 31 -55 0 -12 7 -28 15 -35 8 -7 15 -18 15 -26 0 -7 14 -29
30 -47 17 -19 30 -37 30 -41 0 -9 68 -105 102 -144 15 -18 28 -37 28 -42 0 -6
4 -10 9 -10 14 0 121 -115 138 -147 8 -15 19 -31 26 -35 6 -4 12 -21 13 -38 1
-24 -4 -36 -25 -48 -17 -11 -25 -24 -23 -35 3 -16 0 -18 -19 -12 -17 6 -21 4
-16 -8 8 -21 -14 -37 -41 -30 -13 3 -22 1 -22 -6 0 -6 -9 -11 -20 -11 -13 0
-22 -9 -26 -25 -4 -18 -13 -25 -31 -25 -15 0 -23 -5 -20 -12 2 -7 -2 -20 -9
-29 -9 -10 -15 -59 -19 -156 -4 -116 -10 -153 -31 -214 -14 -41 -30 -79 -34
-84 -5 -6 -10 -42 -13 -81 -2 -39 -11 -84 -20 -100 -9 -16 -18 -40 -21 -54 -3
-14 -24 -44 -47 -67 -22 -24 -37 -43 -33 -43 5 0 3 -5 -4 -12 -31 -31 -5 -57
76 -73 22 -5 32 -12 32 -25 0 -11 12 -25 28 -32 31 -15 51 -62 51 -126 1 -23
8 -54 17 -68 18 -27 16 -35 -12 -35 -118 3 -190 -1 -198 -9 -19 -19 12 -33 81
-39 63 -6 69 -8 82 -36 14 -29 14 -29 24 -7 18 39 67 21 67 -24 0 -31 -24 -47
-59 -39 -22 5 -32 2 -39 -11 -6 -11 -17 -15 -31 -11 -42 11 -29 -10 19 -28 37
-14 50 -25 53 -44 3 -13 3 -30 1 -35 -6 -15 -84 -56 -106 -56 -50 0 -65 -33
-23 -52 24 -11 29 -19 26 -45 -2 -17 51 -83 67 -83 6 0 12 -7 12 -15 0 -8 10
-20 22 -26 38 -21 59 -45 52 -62 -3 -10 -10 -17 -14 -17 -11 0 -27 -66 -55
-235 -14 -82 -44 -246 -67 -363 l-40 -213 25 -37 c15 -20 53 -63 85 -95 l60
-59 91 82 c50 45 94 93 97 106 7 29 2 145 -20 463 -9 128 -16 259 -14 290 3
51 5 56 26 55 12 0 202 -1 421 -2 l400 -2 64 -107 c36 -60 95 -164 132 -233
99 -182 144 -259 182 -309 18 -24 33 -47 33 -51 0 -3 -22 -16 -49 -29 -90 -40
-183 -140 -238 -253 l-25 -51 -112 112 c-108 108 -113 114 -134 185 -26 89
-83 248 -87 244 -2 -2 14 -57 36 -123 48 -142 69 -233 69 -297 0 -28 10 -67
25 -100 34 -73 32 -99 -9 -136 -38 -33 -43 -34 -301 -53 -187 -14 -405 -5
-422 17 -25 33 -151 43 -272 23 -36 -6 -75 -16 -86 -22 -24 -13 -325 -10 -361
3 -49 19 -54 65 -24 193 20 88 83 507 77 513 -6 6 -77 -419 -77 -462 0 -45
-314 165 -468 314 -53 51 -62 64 -53 79 15 27 260 317 272 321 5 2 48 -27 97
-65 91 -73 137 -103 89 -59 l-28 25 35 68 c18 38 56 110 84 161 28 50 47 92
42 92 -4 0 -32 -46 -61 -102 -46 -87 -54 -99 -57 -75 -3 26 -5 27 -68 27 l-65
0 3 78 3 77 35 5 c32 5 35 8 36 40 0 19 -4 41 -9 47 -6 9 -1 24 17 48 21 27
23 35 12 35 -21 0 -20 17 0 28 9 5 14 18 12 33 -3 22 -5 21 -28 -16 -13 -22
-28 -47 -32 -55 -4 -8 -6 1 -4 23 4 42 -5 47 -27 14 -15 -20 -16 -6 -16 182
l-1 204 21 -19 c22 -19 22 -19 14 5 -4 13 -29 53 -55 90 -56 78 -115 181 -103
181 4 -1 19 -7 33 -15 29 -17 40 -18 40 -6 0 5 -11 12 -25 15 -38 10 -94 64
-122 120 -46 90 -40 243 12 311 14 18 16 18 32 2 16 -16 18 -14 30 35 8 29 40
120 72 203 32 82 62 158 65 168 5 17 8 17 28 3 33 -24 78 -21 78 4 0 49 127
80 154 38 15 -24 -3 -37 -19 -14 -13 18 -14 17 -20 -7 -10 -38 10 -65 58 -78
23 -7 45 -13 49 -13 3 -1 10 -4 13 -8 4 -4 15 -4 24 1 9 5 33 12 55 15 37 7
38 9 32 39 -4 17 -20 45 -36 62 -17 17 -30 35 -30 41 0 5 -28 11 -62 12 -35 1
-70 5 -80 8 -29 9 -142 -15 -170 -36 l-28 -21 0 84 c0 94 14 147 38 147 14 0
15 2 3 9 -12 8 -10 12 12 22 19 8 30 9 39 1 17 -13 128 -27 128 -16 0 5 -19
22 -41 38 -29 20 -48 27 -70 24 -22 -4 -29 -1 -25 9 3 7 1 13 -5 13 -18 0 1
61 40 125 43 70 89 178 125 290 31 94 91 193 141 231 27 21 42 25 66 20 24 -5
30 -3 26 8 -9 22 6 29 20 10 7 -10 13 -22 13 -26z m-7040 17 c0 -8 -4 -15 -10
-15 -5 0 -7 7 -4 15 4 8 8 15 10 15 2 0 4 -7 4 -15z m226 -33 c-15 -15 -16
-15 -16 1 0 10 5 15 10 12 6 -3 11 4 11 17 1 19 2 19 6 4 3 -10 -2 -26 -11
-34z m231 6 c-14 -23 -30 -44 -37 -46 -7 -3 2 16 20 42 42 57 50 60 17 4z
m-545 0 c-18 -19 -22 -20 -22 -6 0 9 8 21 17 27 27 15 29 3 5 -21z m1033 22
c3 -5 1 -10 -4 -10 -6 0 -11 5 -11 10 0 6 2 10 4 10 3 0 8 -4 11 -10z m-666
-39 c-6 -18 -13 -30 -15 -28 -2 2 1 18 7 36 6 18 13 30 15 28 2 -2 -1 -18 -7
-36z m1041 9 c0 -5 -2 -10 -4 -10 -3 0 -8 5 -11 10 -3 6 -1 10 4 10 6 0 11 -4
11 -10z m5811 -12 c10 -13 18 -36 19 -51 0 -15 7 -38 16 -51 9 -15 11 -27 5
-30 -9 -6 -31 34 -60 107 -20 51 -12 62 20 25z m-6164 -20 c-3 -8 -6 -5 -6 6
-1 11 2 17 5 13 3 -3 4 -12 1 -19z m-637 -18 c-6 -11 -13 -20 -16 -20 -2 0 0
9 6 20 6 11 13 20 16 20 2 0 0 -9 -6 -20z m6870 10 c0 -5 -2 -10 -4 -10 -3 0
-8 5 -11 10 -3 6 -1 10 4 10 6 0 11 -4 11 -10z m-6710 -15 c0 -3 -6 -21 -14
-40 -8 -18 -11 -35 -6 -37 4 -2 -3 -12 -17 -22 -14 -10 -24 -15 -22 -10 3 5
13 33 24 62 11 28 23 52 27 52 5 0 8 -2 8 -5z m45 -42 c-9 -39 -45 -94 -55
-88 -5 3 0 15 10 25 11 11 21 27 21 35 2 24 4 29 12 43 14 21 20 13 12 -15z
m212 -5 c-3 -7 -5 -2 -5 12 0 14 2 19 5 13 2 -7 2 -19 0 -25z m36 17 c-3 -9
-8 -14 -10 -11 -3 3 -2 9 2 15 9 16 15 13 8 -4z m184 -17 c-3 -7 -5 -2 -5 12
0 14 2 19 5 13 2 -7 2 -19 0 -25z m-597 18 c0 -2 -8 -10 -17 -17 -16 -13 -17
-12 -4 4 13 16 21 21 21 13z m135 -16 c3 -5 1 -10 -4 -10 -6 0 -11 5 -11 10 0
6 2 10 4 10 3 0 8 -4 11 -10z m832 -27 c-3 -10 -5 -4 -5 12 0 17 2 24 5 18 2
-7 2 -21 0 -30z m183 -3 c12 -23 12 -24 -3 -11 -10 7 -17 20 -17 29 0 18 3 16
20 -18z m5706 -5 c16 -39 18 -55 6 -55 -8 0 -32 58 -32 78 0 22 11 12 26 -23z
m-936 -120 c-7 -9 -15 -13 -17 -11 -7 7 7 26 19 26 6 0 6 -6 -2 -15z m17 -312
c-3 -10 -5 -4 -5 12 0 17 2 24 5 18 2 -7 2 -21 0 -30z m-6127 1 c3 -11 12 -19
20 -19 17 1 50 -23 50 -37 0 -17 65 -68 79 -63 9 3 11 0 7 -10 -6 -17 19 -21
29 -5 3 6 11 10 16 10 6 0 7 -4 4 -10 -3 -5 -1 -10 5 -10 6 0 9 -4 6 -9 -4 -5
3 -7 15 -4 12 4 25 0 31 -8 7 -11 11 -11 15 -1 7 17 24 15 17 -2 -6 -14 32
-33 43 -22 4 3 1 6 -5 6 -7 0 -12 8 -12 18 0 13 2 14 9 3 12 -19 47 2 55 34 7
29 23 33 29 8 2 -10 2 -3 0 15 -3 23 0 32 10 32 10 0 13 -9 11 -32 -4 -34 -33
-100 -46 -106 -5 -2 -8 -8 -8 -13 0 -6 4 -8 9 -5 5 3 9 -19 10 -50 0 -60 -22
-109 -45 -100 -8 3 -14 1 -14 -4 0 -6 -8 -10 -18 -10 -10 0 -28 -9 -40 -20
-18 -17 -22 -18 -22 -5 0 13 -9 15 -42 12 -35 -4 -47 0 -69 22 -15 14 -35 31
-45 37 -16 9 -18 22 -16 65 2 30 7 56 12 57 19 7 9 22 -12 19 -16 -1 -22 3
-21 13 3 17 -58 64 -67 51 -16 -25 -79 12 -80 47 0 6 -3 11 -7 11 -41 -7 -44
17 -3 26 24 5 30 12 30 32 0 26 26 55 45 49 5 -1 12 -11 15 -22z m2060 -49 l0
-75 -325 0 c-210 0 -325 4 -325 10 0 6 8 10 18 10 32 0 136 57 172 95 l34 35
213 0 213 0 0 -75z m3638 68 c-42 -7 -35 -39 21 -94 l48 -49 -823 0 -824 0 0
75 0 75 803 -1 c441 -1 790 -4 775 -6z m-4852 -69 c-2 -35 -26 -30 -26 6 0 21
4 28 14 24 8 -3 13 -16 12 -30z m44 10 c0 -8 -4 -14 -10 -14 -5 0 -10 9 -10
21 0 11 5 17 10 14 6 -3 10 -13 10 -21z m-103 -9 c0 -8 -4 -12 -9 -9 -5 3 -6
10 -3 15 9 13 12 11 12 -6z m5085 -115 c34 -10 36 -13 28 -35 -8 -22 -30 -200
-30 -246 0 -18 -22 -19 -742 -21 l-743 -3 -3 -72 c-3 -64 -1 -72 18 -78 20 -6
20 -12 20 -530 0 -518 0 -523 -20 -528 -19 -5 -21 -12 -18 -79 l3 -73 745 -3
c410 -1 755 0 768 3 20 5 22 11 22 74 0 65 -2 70 -22 73 l-23 3 -3 486 -2 486
43 6 c24 3 51 9 60 13 15 5 17 -1 17 -47 0 -71 14 -159 46 -294 30 -121 106
-290 187 -412 l47 -71 0 -233 c-1 -220 -2 -238 -25 -304 -25 -74 -24 -90 6
-82 17 5 19 -1 19 -74 l0 -79 -60 0 c-36 0 -74 7 -91 16 -25 13 -33 13 -46 2
-13 -11 -18 -10 -27 6 -62 103 -63 104 -158 150 -180 86 -301 86 -258 -1 8
-15 16 -31 18 -35 2 -5 -7 -8 -20 -8 -38 0 -121 -44 -168 -89 l-43 -41 -599 0
-598 0 0 1065 0 1065 808 0 c523 0 820 -4 844 -10z m-3742 -1070 l0 -1051 -77
3 -78 3 -3 1035 c-1 569 0 1041 3 1048 3 8 29 12 80 12 l75 0 0 -1050z m150 0
l0 -1050 -65 0 -65 0 0 1050 0 1050 65 0 65 0 0 -1050z m1590 -5 l0 -1045
-387 0 -388 0 3 745 c2 662 1 745 -13 745 -14 0 -15 -83 -13 -745 l3 -745
-260 0 c-143 0 -317 3 -387 7 l-128 6 0 1039 0 1038 785 0 785 0 0 -1045z
m150 0 l0 -1046 -62 3 -63 3 -3 1043 -2 1042 65 0 65 0 0 -1045z m180 0 l0
-1045 -80 0 -80 0 0 1045 0 1045 80 0 80 0 0 -1045z m3294 933 c22 -6 55 -22
73 -35 17 -13 39 -23 48 -23 9 0 15 -6 13 -12 -3 -8 -44 -18 -109 -25 -57 -7
-116 -17 -131 -24 -14 -6 -36 -8 -47 -4 -13 4 -27 1 -37 -9 -21 -21 -62 -3
-44 19 7 8 9 19 5 25 -9 15 43 70 66 70 10 0 21 5 24 10 4 6 10 8 14 6 4 -3
13 -1 21 5 20 12 55 11 104 -3z m-8745 -40 c-1 -7 -4 -23 -7 -35 -7 -22 -8
-22 -47 12 l-40 34 48 1 c32 0 47 -4 46 -12z m841 6 c0 -8 -19 -13 -24 -6 -3
5 1 9 9 9 8 0 15 -2 15 -3z m8018 -81 c38 -10 5 -23 -59 -23 -30 0 -79 -7
-108 -16 -61 -18 -77 -13 -32 10 57 30 148 43 199 29z m969 -45 c-3 -7 -5 -2
-5 12 0 14 2 19 5 13 2 -7 2 -19 0 -25z m-9490 7 c20 -14 52 -82 33 -70 -6 4
-10 -1 -10 -9 0 -22 -11 -20 -41 8 -32 30 -89 60 -89 47 0 -5 -3 -16 -6 -25
-5 -12 1 -16 22 -16 16 0 37 -7 47 -14 19 -14 19 -21 2 -247 -9 -107 -1 -124
106 -231 l78 -78 -30 -15 c-40 -21 -38 -39 6 -32 40 7 50 -10 39 -68 -5 -27
-3 -35 9 -35 14 0 27 -20 27 -42 0 -7 -21 -9 -61 -5 -128 11 -249 102 -296
221 -29 70 -30 156 -4 205 18 34 18 36 -1 90 -15 46 -18 77 -15 169 3 101 6
115 27 137 20 21 33 25 80 25 33 0 64 -6 77 -15z m8513 -55 c0 -4 -10 -11 -22
-17 -19 -8 -23 -18 -23 -53 0 -43 0 -43 49 -57 l49 -14 -24 -17 c-26 -19 -114
-23 -161 -8 -16 4 -28 4 -27 0 0 -13 109 -64 144 -68 17 -2 47 -11 69 -20 21
-9 58 -16 82 -16 32 0 46 -5 54 -19 6 -12 17 -17 28 -14 10 2 26 -4 36 -16 16
-17 16 -25 6 -55 -7 -23 -9 -59 -5 -100 6 -56 4 -69 -14 -94 -11 -16 -18 -32
-15 -35 8 -8 -48 -72 -102 -117 -12 -9 -19 -10 -21 -3 -4 12 -43 5 -43 -8 0
-5 7 -6 15 -3 12 5 12 2 -1 -25 -9 -19 -26 -33 -42 -37 -15 -4 -32 -11 -38
-15 -6 -5 -34 -8 -61 -8 -48 1 -53 4 -77 41 -14 22 -26 45 -26 52 0 21 -66
151 -109 213 l-41 60 3 121 c3 82 0 123 -7 126 -8 3 -7 7 1 13 16 11 26 83 12
83 -6 0 -9 12 -7 28 3 27 3 27 75 26 67 -2 72 0 63 16 -16 30 -12 39 28 57 62
29 104 32 130 9 12 -11 22 -22 22 -26z m-1735 -17 c-4 -21 -8 -44 -10 -50 -4
-10 -158 -13 -730 -13 l-725 0 0 50 0 50 735 0 736 0 -6 -37z m1455 27 c0 -5
-4 -10 -10 -10 -5 0 -20 -18 -32 -40 -13 -22 -26 -40 -30 -40 -10 0 -10 61 0
76 12 19 72 31 72 14z m1260 -345 c-27 -183 -100 -390 -185 -520 -34 -51 -40
-57 -43 -37 -2 13 1 28 6 35 5 7 9 40 10 74 1 67 30 151 75 217 25 36 27 47
27 141 0 74 4 106 14 114 28 23 76 149 89 232 l12 84 3 -130 c2 -71 -2 -166
-8 -210z m-8714 271 c6 -15 -31 -64 -41 -55 -7 7 18 69 28 69 4 0 10 -7 13
-14z m998 -22 c4 -9 5 -18 4 -18 -2 -1 -15 -10 -30 -19 -32 -20 -32 -20 -17
22 12 34 33 41 43 15z m-1700 -15 c-6 -11 -24 -2 -24 11 0 5 7 7 15 4 8 -4 12
-10 9 -15z m456 11 c0 -5 -2 -10 -4 -10 -3 0 -8 5 -11 10 -3 6 -1 10 4 10 6 0
11 -4 11 -10z m5140 -185 l0 -165 -160 0 -160 0 0 165 0 165 160 0 160 0 0
-165z m370 0 l0 -165 -160 0 -160 0 0 165 0 165 160 0 160 0 0 -165z m355 103
c3 -35 5 -108 3 -163 l-3 -100 -160 0 -160 0 -3 100 c-2 55 0 128 3 163 l7 62
153 0 153 0 7 -62z m355 56 c0 -3 -9 -18 -20 -34 -21 -29 -18 -40 12 -40 16 0
18 -10 18 -125 l0 -125 -160 0 -160 0 0 165 0 165 155 0 c85 0 155 -3 155 -6z
m245 -167 l21 -28 -21 -47 c-13 -26 -27 -58 -32 -72 -9 -22 -11 -18 -21 40 -6
36 -14 103 -17 150 l-6 85 27 -50 c15 -27 37 -63 49 -78z m-6886 -109 c10 -26
5 -41 -10 -32 -5 3 -7 15 -3 26 4 14 2 18 -5 14 -6 -4 -11 -2 -11 3 0 20 21
11 29 -11z m-79 -45 c-1 -24 -2 -26 -11 -10 -5 9 -7 22 -4 27 10 17 15 11 15
-17z m8030 -34 c0 -12 -27 -11 -35 1 -11 17 5 32 21 19 8 -6 14 -15 14 -20z
m-42 -24 c6 -14 8 -25 4 -25 -12 0 -32 23 -32 37 0 22 16 15 28 -12z m-2348
-165 l0 -180 -160 0 -160 0 0 180 0 180 160 0 160 0 0 -180z m370 0 l0 -180
-160 0 -160 0 0 180 0 180 160 0 160 0 0 -180z m360 0 l0 -180 -165 0 -165 0
0 180 0 180 165 0 165 0 0 -180z m360 0 l0 -180 -160 0 -160 0 0 180 0 180
160 0 160 0 0 -180z m-6490 -210 c0 -5 -2 -10 -4 -10 -3 0 -8 5 -11 10 -3 6
-1 10 4 10 6 0 11 -4 11 -10z m5400 -155 l0 -146 -157 3 -158 3 -3 129 c-1 72
0 136 2 143 4 10 42 13 161 13 l155 0 0 -145z m365 0 l0 -140 -157 -3 -158 -3
0 146 0 146 158 -3 157 -3 0 -140z m360 0 l0 -140 -160 0 -160 0 -3 129 c-1
72 0 136 2 143 4 11 39 13 163 11 l158 -3 0 -140z m365 0 l0 -145 -160 0 -160
0 0 145 0 145 160 0 160 0 0 -145z m2457 43 c-3 -8 -6 -5 -6 6 -1 11 2 17 5
13 3 -3 4 -12 1 -19z m-107 -122 c0 -2 -8 -10 -17 -17 -16 -13 -17 -12 -4 4
13 16 21 21 21 13z m-2300 -136 l0 -50 -750 0 -750 0 0 50 0 50 750 0 750 0 0
-50z m-6832 -185 c2 -2 2 -24 0 -49 l-3 -47 -55 56 -55 56 55 -7 c30 -4 56 -8
58 -9z m213 -82 c-32 -49 -67 -104 -79 -123 l-22 -35 0 123 0 122 79 0 79 0
-57 -87z m2397 5 c3 -15 -25 -50 -145 -180 -10 -11 -12 -18 -5 -18 6 0 19 12
29 26 32 46 84 94 101 93 10 -1 28 -4 42 -9 18 -5 21 -9 10 -13 -8 -3 -22 -8
-30 -11 -8 -3 6 -3 31 0 66 8 126 -28 67 -39 -13 -2 -6 -3 14 -2 28 2 42 -3
59 -21 12 -13 19 -24 15 -24 -5 0 -2 -7 5 -16 11 -14 10 -19 -9 -35 -43 -34
-290 -113 -387 -123 l-50 -6 -76 88 -77 87 24 47 c27 53 66 86 144 122 117 53
231 70 238 34z m4113 -68 c103 -32 179 -80 217 -134 17 -27 32 -53 32 -60 0
-6 -37 -50 -83 -99 l-82 -88 -105 25 c-185 43 -322 97 -328 130 -3 15 3 16 50
12 l53 -5 -45 10 c-25 6 -47 13 -49 15 -10 10 35 44 58 44 19 0 22 3 12 9 -20
13 24 34 69 34 19 0 27 2 17 4 -29 8 -8 23 31 23 38 0 67 -21 113 -82 11 -16
25 -28 30 -28 11 0 -6 21 -83 101 -39 40 -58 68 -58 84 0 23 4 25 44 25 24 0
72 -9 107 -20z m365 -221 c30 -17 54 -34 54 -37 0 -4 -26 -37 -58 -74 -31 -37
-93 -109 -136 -160 -44 -51 -83 -94 -87 -96 -8 -3 -99 107 -99 119 0 8 136
166 199 232 25 26 52 47 59 47 8 0 39 -14 68 -31z m-4291 -111 c-4 -62 -9
-116 -12 -120 -2 -5 -90 -8 -194 -8 l-190 0 17 29 c17 29 17 30 -10 65 l-27
35 28 7 c130 31 256 66 293 83 25 11 58 20 73 20 l29 1 -7 -112z m2255 82 l0
-30 -1040 0 -1040 0 0 30 0 30 1040 0 1040 0 0 -30z m1311 6 c26 -33 138 -77
294 -117 72 -18 132 -34 134 -35 2 -2 -7 -17 -19 -33 l-21 -31 -543 0 c-299 0
-638 3 -754 7 l-211 6 -5 41 c-3 23 -7 71 -10 108 l-5 67 152 4 c84 1 336 4
561 5 l408 2 19 -24z m969 -16 c0 -50 -26 -105 -43 -92 -7 5 -37 28 -67 53
-31 24 -67 52 -80 61 -24 16 -22 17 83 17 l107 1 0 -40z m-2276 -71 c3 -17 6
-44 6 -60 l0 -29 -1050 0 -1050 0 0 44 c0 24 3 51 6 60 6 14 107 16 1044 16
l1038 0 6 -31z m10 -140 c3 -17 6 -49 6 -70 l0 -39 -1060 0 -1060 0 0 54 c0
30 3 61 6 70 6 14 108 16 1054 16 l1048 0 6 -31z m10 -151 c3 -13 6 -44 6 -70
l0 -48 -1070 0 -1070 0 0 63 c0 35 3 67 7 70 3 4 482 7 1064 7 l1057 0 6 -22z
m14 -205 l3 -63 -1081 0 -1080 0 0 65 0 65 1078 -2 1077 -3 3 -62z m4362 -14
l38 -63 -37 -17 c-62 -29 -192 -181 -212 -249 l-12 -38 -62 51 c-35 29 -66 58
-69 65 -10 23 54 129 120 201 63 68 171 138 187 121 5 -4 26 -36 47 -71z m99
-120 c99 -23 138 -45 128 -73 -4 -10 -16 -20 -27 -23 -26 -7 -25 -15 1 -39 27
-24 69 -111 69 -144 0 -22 -5 -20 -57 30 -34 33 -44 39 -23 16 19 -22 45 -49
58 -60 20 -18 22 -25 13 -49 -6 -15 -16 -27 -23 -27 -7 0 -42 28 -78 62 l-65
63 68 -70 c53 -56 65 -73 55 -83 -23 -23 -57 -12 -120 39 l-63 50 49 -46 c27
-25 47 -47 45 -50 -2 -2 -28 4 -56 14 -76 26 -210 110 -245 154 l-30 38 28 41
c41 59 154 178 169 178 8 0 54 -9 104 -21z m-1438 -264 c11 -4 19 -23 23 -53
4 -26 9 -63 12 -83 9 -63 -5 -69 -174 -69 -81 0 -153 4 -160 8 -27 17 -43 139
-23 171 20 31 262 51 322 26z"/>
<path d="M6139 9813 c-2 -16 -3 -178 -1 -361 l4 -332 706 2 707 3 0 355 0 355
-706 3 -707 2 -3 -27z m1409 -335 l2 -348 -700 0 -700 0 0 350 0 350 698 -2
697 -3 3 -347z"/>
<path d="M6190 9650 l0 -140 140 0 140 0 0 140 0 140 -140 0 -140 0 0 -140z
m270 -5 l0 -125 -130 0 -130 0 0 125 0 125 130 0 130 0 0 -125z"/>
<path d="M6540 9650 l0 -140 140 0 140 0 0 140 0 140 -140 0 -140 0 0 -140z
m270 -5 l0 -125 -130 0 -130 0 0 125 0 125 130 0 130 0 0 -125z"/>
<path d="M6870 9650 l0 -140 140 0 140 0 0 140 0 140 -140 0 -140 0 0 -140z
m270 -5 l0 -125 -130 0 -130 0 0 125 0 125 130 0 130 0 0 -125z"/>
<path d="M7220 9650 l0 -140 140 0 140 0 0 140 0 140 -140 0 -140 0 0 -140z
m270 -5 l0 -125 -130 0 -130 0 0 125 0 125 130 0 130 0 0 -125z"/>
<path d="M6190 9310 l0 -140 140 0 140 0 0 140 0 140 -140 0 -140 0 0 -140z
m270 0 l0 -130 -130 0 -130 0 0 123 c0 68 3 127 7 130 3 4 62 7 130 7 l123 0
0 -130z"/>
<path d="M6540 9310 l0 -140 140 0 140 0 0 140 0 140 -140 0 -140 0 0 -140z
m270 0 l0 -130 -130 0 -130 0 0 130 0 130 130 0 130 0 0 -130z"/>
<path d="M6870 9310 l0 -140 140 0 140 0 0 140 0 140 -140 0 -140 0 0 -140z
m270 0 l0 -130 -130 0 -130 0 0 130 0 130 130 0 130 0 0 -130z"/>
<path d="M7220 9310 l0 -140 140 0 140 0 0 140 0 140 -140 0 -140 0 0 -140z
m270 0 l0 -130 -130 0 -130 0 0 130 0 130 130 0 130 0 0 -130z"/>
<path d="M6730 7892 c-126 -42 -206 -123 -249 -250 -61 -180 30 -387 206 -470
51 -24 70 -27 158 -27 93 0 105 2 166 32 80 39 150 111 187 191 24 50 27 69
27 157 0 88 -3 107 -27 157 -37 79 -108 152 -184 189 -82 41 -199 49 -284 21z
m240 -27 c108 -38 196 -137 226 -255 42 -166 -40 -337 -201 -415 -53 -26 -70
-30 -150 -29 -78 0 -98 4 -149 29 -116 55 -199 174 -212 302 -5 47 -2 76 15
129 63 204 271 309 471 239z"/>
<path d="M6840 7661 c0 -75 -4 -102 -15 -111 -8 -7 -14 -22 -13 -34 1 -12 -17
-49 -40 -83 -45 -66 -48 -73 -32 -73 5 0 29 29 52 65 24 35 48 65 54 65 6 0
17 7 25 16 10 12 10 20 1 35 -7 11 -12 59 -12 119 0 60 -4 100 -10 100 -6 0
-10 -40 -10 -99z"/>
<path d="M1920 6422 c0 -26 68 -121 95 -134 27 -12 53 -5 61 16 8 21 -33 72
-86 106 -54 34 -70 37 -70 12z"/>
<path d="M10361 6351 c-70 -26 -78 -42 -18 -35 40 4 107 36 107 51 0 17 -2 17
-89 -16z"/>
<path d="M10350 5835 c0 -19 56 -49 65 -34 9 14 -24 49 -47 49 -10 0 -18 -7
-18 -15z"/>
<path d="M10320 5441 c0 -5 7 -14 15 -21 18 -15 42 1 31 19 -8 13 -46 15 -46
2z"/>
<path d="M10120 4900 c0 -5 5 -10 10 -10 6 0 10 5 10 10 0 6 -4 10 -10 10 -5
0 -10 -4 -10 -10z"/>
<path d="M10195 4810 c-3 -5 -1 -10 4 -10 6 0 11 5 11 10 0 6 -2 10 -4 10 -3
0 -8 -4 -11 -10z"/>
<path d="M10765 4810 c-3 -5 -1 -10 4 -10 6 0 11 5 11 10 0 6 -2 10 -4 10 -3
0 -8 -4 -11 -10z"/>
<path d="M10362 4720 c0 -14 2 -19 5 -12 2 6 2 18 0 25 -3 6 -5 1 -5 -13z"/>
<path d="M11579 4694 c-5 -15 -8 -29 -5 -31 2 -2 8 10 14 26 13 38 5 41 -9 5z"/>
<path d="M10352 4640 c0 -19 2 -27 5 -17 2 9 2 25 0 35 -3 9 -5 1 -5 -18z"/>
<path d="M11556 4633 c-3 -10 -7 -36 -10 -58 -4 -31 -2 -27 9 15 8 30 12 56
10 58 -2 2 -6 -5 -9 -15z"/>
<path d="M10342 4575 c0 -16 2 -22 5 -12 2 9 2 23 0 30 -3 6 -5 -1 -5 -18z"/>
<path d="M10333 4500 c0 -25 2 -35 4 -22 2 12 2 32 0 45 -2 12 -4 2 -4 -23z"/>
<path d="M11532 4480 c-1 -30 5 -75 13 -100 12 -35 14 -38 9 -10 -4 19 -10 64
-14 100 l-7 65 -1 -55z"/>
<path d="M10322 4425 c0 -16 2 -22 5 -12 2 9 2 23 0 30 -3 6 -5 -1 -5 -18z"/>
<path d="M10312 4355 c0 -16 2 -22 5 -12 2 9 2 23 0 30 -3 6 -5 -1 -5 -18z"/>
<path d="M6437 5904 c-4 -4 -7 -177 -7 -384 0 -279 3 -379 12 -388 18 -18 212
-16 227 2 8 9 10 121 9 392 l-3 379 -116 3 c-63 1 -118 -1 -122 -4z m213 -384
l0 -370 -95 0 -95 0 0 370 0 370 95 0 95 0 0 -370z"/>
<path d="M7022 5518 l3 -393 115 0 115 0 0 390 0 390 -118 3 -117 3 2 -393z
m208 2 l0 -370 -95 0 -95 0 0 363 c0 200 3 367 7 370 3 4 46 7 95 7 l88 0 0
-370z"/>
<path d="M6702 5138 l3 -113 35 0 35 0 3 113 3 112 -41 0 -41 0 3 -112z"/>
<path d="M6912 5138 l3 -113 38 -3 37 -3 0 115 0 116 -40 0 -41 0 3 -112z"/>
<path d="M2782 5911 c18 -25 57 -55 64 -49 2 3 -15 20 -38 38 -32 26 -38 29
-26 11z"/>
<path d="M5478 4743 c7 -3 16 -2 19 1 4 3 -2 6 -13 5 -11 0 -14 -3 -6 -6z"/>
<path d="M5420 4730 c-18 -12 -2 -12 25 0 13 6 15 9 5 9 -8 0 -22 -4 -30 -9z"/>
<path d="M5530 4690 l-25 -8 25 0 c14 0 39 4 55 8 l30 8 -30 0 c-16 0 -41 -4
-55 -8z"/>
<path d="M5420 4660 c-18 -12 -2 -12 25 0 13 6 15 9 5 9 -8 0 -22 -4 -30 -9z"/>
<path d="M9398 4723 c7 -3 16 -2 19 1 4 3 -2 6 -13 5 -11 0 -14 -3 -6 -6z"/>
<path d="M9318 4683 c7 -3 16 -2 19 1 4 3 -2 6 -13 5 -11 0 -14 -3 -6 -6z"/>
<path d="M9358 4673 c7 -3 16 -2 19 1 4 3 -2 6 -13 5 -11 0 -14 -3 -6 -6z"/>
<path d="M9405 4660 c27 -12 43 -12 25 0 -8 5 -22 9 -30 9 -10 0 -8 -3 5 -9z"/>
<path d="M9355 4605 c27 -8 51 -12 53 -10 5 5 -69 25 -88 24 -8 0 7 -7 35 -14z"/>
<path d="M6190 10200 c-12 -8 -10 -10 8 -10 13 0 20 4 17 10 -7 12 -6 12 -25
0z"/>
<path d="M6725 10200 c-4 -6 19 -10 62 -10 48 0 63 3 53 10 -20 13 -107 13
-115 0z"/>
<path d="M7455 10200 c-12 -5 77 -9 220 -9 158 -1 235 3 225 9 -19 12 -417 12
-445 0z"/>
<path d="M10694 8338 c-122 -125 -260 -291 -264 -318 -8 -53 27 -54 61 -2 20
31 30 38 64 40 36 3 45 10 97 76 71 90 198 290 198 310 0 38 -44 8 -156 -106z"/>
<path d="M11250 8151 c0 -10 30 -24 37 -17 3 3 2 9 -2 15 -8 13 -35 15 -35 2z"/>
<path d="M11465 8150 c3 -5 11 -10 16 -10 6 0 7 5 4 10 -3 6 -11 10 -16 10 -6
0 -7 -4 -4 -10z"/>
<path d="M10940 8104 c0 -8 5 -12 10 -9 6 3 10 10 10 16 0 5 -4 9 -10 9 -5 0
-10 -7 -10 -16z"/>
<path d="M10900 8078 c0 -7 5 -20 10 -28 8 -12 10 -9 10 13 0 15 -4 27 -10 27
-5 0 -10 -6 -10 -12z"/>
<path d="M10955 8070 c3 -5 8 -10 11 -10 2 0 4 5 4 10 0 6 -5 10 -11 10 -5 0
-7 -4 -4 -10z"/>
<path d="M10585 8040 c-6 -10 15 -50 27 -50 12 0 17 16 11 38 -5 23 -27 29
-38 12z"/>
<path d="M4670 6519 c0 -5 5 -7 10 -4 6 3 10 8 10 11 0 2 -4 4 -10 4 -5 0 -10
-5 -10 -11z"/>
<path d="M5102 6393 c-90 -88 -116 -151 -109 -264 2 -42 12 -91 21 -109 20
-42 21 -40 -9 -84 -13 -20 -21 -36 -17 -36 20 0 72 42 92 76 22 34 24 48 22
153 -1 64 -6 130 -11 148 -11 37 -4 74 16 86 7 4 13 15 13 22 0 9 10 15 25 15
14 0 25 3 26 8 0 4 2 17 3 30 2 12 2 22 0 22 -1 0 -33 -30 -72 -67z"/>
<path d="M5252 6448 c4 -10 41 -14 141 -16 l137 -3 0 -49 0 -50 -131 0 c-100
0 -130 -3 -127 -12 3 -9 37 -14 111 -16 l107 -3 0 -164 0 -165 -154 0 c-145 0
-154 -1 -159 -20 -5 -19 0 -20 154 -20 l159 0 0 -180 0 -180 -160 0 -160 0 0
173 -1 172 -19 -35 c-16 -30 -19 -56 -20 -172 l0 -138 -100 0 c-55 0 -100 -2
-100 -4 0 -2 -3 -11 -6 -20 -5 -13 9 -16 98 -18 l103 -3 0 -140 0 -140 -150
-3 c-82 -1 -154 -7 -159 -12 -7 -7 118 -10 352 -10 l362 0 0 -50 0 -50 -382
-2 c-296 -2 -382 -6 -386 -16 -3 -10 77 -12 390 -10 l393 3 3 71 c3 65 1 72
-18 77 -20 5 -20 10 -20 532 0 522 0 527 20 532 19 5 21 12 18 77 l-3 71 -148
3 c-117 2 -148 0 -145 -10z m238 -1063 l0 -145 -160 0 -160 0 0 145 0 145 160
0 160 0 0 -145z"/>
<path d="M5099 5911 c-13 -11 -21 -22 -18 -25 3 -3 16 5 29 19 28 30 22 33
-11 6z"/>
<path d="M3722 5884 c-13 -20 -21 -38 -19 -41 5 -5 57 59 57 70 0 17 -17 4
-38 -29z"/>
<path d="M4301 5885 c0 -5 11 -23 24 -40 14 -16 25 -25 25 -20 0 6 -11 24 -25
40 -13 17 -24 26 -24 20z"/>
<path d="M768 5573 c-107 -148 -193 -270 -191 -273 9 -9 175 175 264 293 110
146 164 247 131 247 -5 0 -96 -120 -204 -267z"/>
<path d="M13164 5809 c7 -39 78 -147 173 -267 82 -103 213 -245 220 -238 6 6
-380 535 -391 536 -5 0 -6 -14 -2 -31z"/>
<path d="M3793 5706 c-12 -6 -27 -21 -34 -33 -8 -14 -22 -23 -36 -23 -19 0
-23 -5 -23 -33 0 -18 6 -42 14 -52 14 -19 11 -44 -6 -56 -9 -6 -20 -59 -19
-92 0 -13 -5 -17 -15 -13 -9 3 -17 6 -20 6 -2 0 -1 8 2 18 4 11 -1 8 -15 -8
-11 -14 -21 -21 -21 -16 0 5 -7 3 -15 -4 -8 -7 -21 -10 -29 -7 -32 12 -106
-145 -77 -163 8 -5 9 -10 3 -14 -6 -3 -12 0 -15 6 -6 18 -27 -37 -27 -72 0
-40 9 -60 26 -53 9 3 14 -2 14 -16 0 -12 5 -21 10 -21 6 0 10 7 10 15 0 9 6
12 15 9 8 -4 15 -1 15 5 0 14 72 10 83 -4 4 -6 11 -5 16 5 6 8 12 12 13 10 2
-3 12 -18 22 -33 10 -17 23 -26 31 -23 8 3 16 0 19 -7 4 -7 4 -2 2 11 -2 12 0
22 5 22 6 0 5 8 -1 19 -16 31 -12 40 15 35 34 -6 88 -37 86 -49 -1 -6 -12 -10
-25 -10 -13 0 -28 -3 -32 -7 -4 -5 -2 -8 4 -8 7 0 12 -5 12 -11 0 -6 -9 -8
-22 -4 -20 7 -21 5 -15 -37 11 -77 23 -98 57 -98 56 0 61 -22 50 -225 -6 -99
-14 -227 -20 -285 -13 -143 -14 -333 -2 -357 13 -23 166 -163 180 -163 11 0
119 113 150 156 l21 31 -25 119 c-14 65 -47 244 -75 399 -57 322 -57 325 16
325 45 0 49 4 48 47 0 7 9 11 20 10 15 -1 23 6 30 30 5 18 6 40 1 50 -4 10 -8
23 -9 29 0 6 -6 18 -13 26 -13 16 1 26 67 47 51 17 64 14 58 -10 -5 -18 -2
-20 16 -14 63 19 103 17 160 -9 64 -28 75 -23 64 33 -3 16 -1 33 6 40 9 9 5
17 -17 34 -25 20 -28 28 -24 66 4 42 2 45 -49 83 -29 22 -56 37 -61 34 -5 -3
-22 2 -37 10 -16 8 -38 13 -47 10 -18 -4 -46 30 -34 41 11 11 -16 33 -39 33
-13 0 -25 7 -29 15 -3 9 0 15 10 15 8 0 12 4 9 10 -3 6 1 7 9 4 9 -4 18 1 22
10 3 9 12 16 19 16 12 0 25 20 31 49 4 20 -41 60 -83 74 -21 7 -58 12 -83 11
-209 -10 -226 -10 -252 3 -37 18 -88 22 -115 9z m362 -271 c11 -4 23 -9 27 -9
4 -1 16 -8 27 -18 13 -11 22 -13 30 -5 7 7 16 5 30 -7 11 -10 25 -15 30 -11 6
3 11 -1 11 -10 0 -8 7 -18 15 -21 17 -7 20 -30 4 -39 -11 -8 -38 2 -148 53
-55 25 -80 32 -100 26 -66 -19 -93 -20 -149 -3 -34 11 -47 11 -62 1 -11 -7
-25 -12 -32 -12 -7 0 -35 -11 -63 -25 -27 -13 -57 -25 -66 -25 -8 0 -20 -5
-27 -12 -9 -9 -12 -7 -12 10 0 35 46 70 84 63 5 -1 16 4 25 12 39 34 122 47
156 24 40 -27 77 -27 135 2 30 14 57 24 60 21 3 -4 14 -10 25 -15z m-257 -241
c23 -15 23 -17 8 -26 -20 -12 -63 -3 -82 17 -19 19 -18 20 17 23 18 1 43 -5
57 -14z m252 -4 c0 -4 -10 -6 -22 -5 -40 4 -43 6 -23 14 21 9 45 4 45 -9z
m-73 4 c-3 -3 -12 -4 -19 -1 -8 3 -5 6 6 6 11 1 17 -2 13 -5z m-192 -74 c3 -6
-1 -7 -9 -4 -18 7 -21 14 -7 14 6 0 13 -4 16 -10z m155 -18 c0 -7 -5 -10 -11
-6 -8 4 -9 0 -4 -15 5 -18 2 -21 -22 -21 -33 0 -47 8 -56 32 -7 20 0 23 53 23
26 0 40 -4 40 -13z m-118 -7 c0 -5 -5 -11 -11 -13 -6 -2 -11 4 -11 13 0 9 5
15 11 13 6 -2 11 -8 11 -13z m228 -23 c0 -5 -7 -9 -15 -9 -8 0 -15 4 -15 9 0
4 7 8 15 8 8 0 15 -4 15 -8z"/>
<path d="M426 5641 c-16 -26 -177 -777 -176 -820 1 -23 43 108 91 283 44 158
109 463 109 508 0 28 -14 45 -24 29z"/>
<path d="M13694 5636 c-15 -38 71 -433 147 -680 18 -60 35 -104 36 -99 5 13
-100 537 -133 668 -30 119 -39 139 -50 111z"/>
<path d="M3206 5432 c-3 -6 -1 -14 5 -17 15 -10 25 3 12 16 -7 7 -13 7 -17 1z"/>
<path d="M990 5281 c-46 -18 -260 -144 -362 -212 -53 -37 -103 -89 -144 -153
-13 -21 6 -9 71 43 110 88 176 127 388 229 111 54 167 86 167 96 0 22 -61 20
-120 -3z"/>
<path d="M13030 5286 c0 -13 48 -41 168 -98 211 -102 277 -141 386 -228 74
-60 85 -66 69 -39 -51 88 -223 216 -453 336 -80 42 -170 57 -170 29z"/>
<path d="M410 5135 c-7 -16 -57 -207 -111 -423 -127 -504 -129 -530 -14 -172
131 407 170 566 147 606 -10 17 -12 16 -22 -11z"/>
<path d="M13705 5141 c-15 -50 22 -203 137 -560 45 -139 84 -249 85 -245 5 14
-194 805 -205 816 -7 7 -12 3 -17 -11z"/>
<path d="M3277 4991 c-4 -32 -9 -65 -13 -74 -4 -12 -1 -17 11 -17 10 0 15 5
12 13 -3 7 1 26 7 42 l13 30 24 -42 c15 -27 31 -43 43 -43 17 0 16 4 -8 33
-15 17 -39 51 -55 74 l-28 43 -6 -59z"/>
<path d="M4235 5040 c3 -5 11 -10 16 -10 6 0 7 5 4 10 -3 6 -11 10 -16 10 -6
0 -7 -4 -4 -10z"/>
<path d="M1 4892 c-1 -99 4 -133 40 -285 22 -94 43 -174 46 -177 21 -19 -28
351 -66 500 l-19 75 -1 -113z"/>
<path d="M14112 4905 c-33 -144 -50 -261 -56 -378 l-6 -102 45 175 c42 164 45
182 42 290 l-2 115 -23 -100z"/>
<path d="M3505 4980 c3 -5 8 -10 11 -10 2 0 4 5 4 10 0 6 -5 10 -11 10 -5 0
-7 -4 -4 -10z"/>
<path d="M3725 4960 c3 -5 8 -10 11 -10 2 0 4 5 4 10 0 6 -5 10 -11 10 -5 0
-7 -4 -4 -10z"/>
<path d="M3550 4939 c0 -5 5 -7 10 -4 6 3 10 8 10 11 0 2 -4 4 -10 4 -5 0 -10
-5 -10 -11z"/>
<path d="M550 4733 c-173 -175 -178 -182 -40 -68 111 92 230 207 230 223 0 30
-36 1 -190 -155z"/>
<path d="M1125 4884 c-32 -8 -93 -33 -135 -56 -157 -85 -430 -240 -430 -244 0
-2 26 8 58 22 31 15 127 52 212 84 226 84 307 119 353 154 68 52 49 66 -58 40z"/>
<path d="M12910 4891 c0 -13 56 -59 100 -81 47 -24 209 -88 315 -125 44 -15
109 -41 144 -57 35 -15 66 -26 68 -24 4 3 -212 128 -387 224 -92 50 -240 89
-240 63z"/>
<path d="M13400 4888 c0 -16 119 -131 230 -223 138 -114 133 -107 -40 68 -154
156 -190 185 -190 155z"/>
<path d="M4461 4824 c0 -11 3 -14 6 -6 3 7 2 16 -1 19 -3 4 -6 -2 -5 -13z"/>
<path d="M3246 4760 c3 -14 11 -32 16 -40 6 -10 7 -7 2 10 -3 14 -11 32 -16
40 -6 10 -7 7 -2 -10z"/>
<path d="M4472 4750 c0 -14 2 -19 5 -12 2 6 2 18 0 25 -3 6 -5 1 -5 -13z"/>
<path d="M3271 4695 c0 -5 6 -37 14 -70 14 -58 14 -59 9 -11 -5 44 -22 106
-23 81z"/>
<path d="M4483 4665 c0 -22 2 -30 4 -17 2 12 2 30 0 40 -3 9 -5 -1 -4 -23z"/>
<path d="M4492 4595 c0 -16 5 -64 12 -105 8 -41 14 -64 14 -50 0 14 -5 61 -13
105 -7 44 -13 67 -13 50z"/>
<path d="M3295 4540 c3 -5 8 -10 11 -10 2 0 4 5 4 10 0 6 -5 10 -11 10 -5 0
-7 -4 -4 -10z"/>
<path d="M3292 4490 c0 -19 2 -27 5 -17 2 9 2 25 0 35 -3 9 -5 1 -5 -18z"/>
<path d="M3278 4427 c-3 -19 -2 -25 4 -19 6 6 8 18 6 28 -3 14 -5 12 -10 -9z"/>
<path d="M395 4425 c-49 -18 -57 -27 -111 -143 -52 -110 -55 -124 -13 -56 44
70 116 142 171 170 26 13 49 28 53 34 9 15 -53 12 -100 -5z"/>
<path d="M847 4408 c3 -18 28 -83 54 -143 26 -61 51 -124 55 -140 7 -30 7 -29
-45 18 -111 99 -239 138 -392 119 -147 -18 -145 -31 14 -97 176 -74 370 -171
396 -199 28 -29 23 -43 -8 -26 -40 21 -196 50 -271 50 -110 0 -115 -10 -28
-58 80 -44 203 -131 195 -138 -3 -3 -33 5 -68 17 -123 43 -356 36 -408 -12
-33 -31 -22 -51 49 -87 186 -95 297 -156 371 -206 77 -53 85 -56 143 -56 147
0 470 74 522 119 18 16 76 55 131 86 122 72 142 87 143 103 1 33 -217 -1 -309
-47 -22 -12 -43 -21 -46 -21 -4 0 19 28 50 63 106 116 241 342 260 432 3 19 0
38 -8 49 -13 18 -15 18 -48 1 -139 -72 -312 -290 -360 -455 -13 -44 -13 -43
-19 85 -10 207 -54 320 -174 443 -79 82 -148 132 -182 132 -21 0 -23 -3 -17
-32z"/>
<path d="M13644 4431 c4 -6 28 -22 54 -35 55 -28 127 -100 171 -170 44 -70 39
-51 -19 69 -56 116 -73 132 -162 142 -38 5 -49 3 -44 -6z"/>
<path d="M1 4326 c-1 -79 6 -146 25 -245 14 -75 28 -138 31 -141 12 -11 -28
384 -47 460 -6 26 -8 8 -9 -74z"/>
<path d="M14118 4325 c-19 -116 -42 -365 -35 -371 2 -3 16 57 31 133 22 109
27 160 24 243 l-3 105 -17 -110z"/>
<path d="M4522 4390 c0 -14 2 -19 5 -12 2 6 2 18 0 25 -3 6 -5 1 -5 -13z"/>
<path d="M4532 4335 c0 -16 2 -22 5 -12 2 9 2 23 0 30 -3 6 -5 -1 -5 -18z"/>
<path d="M13931 4304 c0 -11 3 -14 6 -6 3 7 2 16 -1 19 -3 4 -6 -2 -5 -13z"/>
<path d="M191 4274 c0 -11 3 -14 6 -6 3 7 2 16 -1 19 -3 4 -6 -2 -5 -13z"/>
<path d="M368 4115 c-31 -19 -62 -45 -70 -58 -8 -12 -39 -60 -67 -107 l-53
-85 136 135 c75 74 136 138 136 142 0 16 -27 7 -82 -27z"/>
<path d="M13690 4142 c0 -4 59 -66 131 -137 73 -72 128 -123 124 -115 -5 8
-33 54 -62 102 -44 71 -63 93 -110 122 -56 35 -83 44 -83 28z"/>
<path d="M2646 4125 c10 -8 26 -14 34 -14 9 0 4 6 -10 14 -33 19 -49 19 -24 0z"/>
<path d="M3100 3995 c-20 -24 -6 -28 15 -5 10 11 13 20 8 20 -6 0 -16 -7 -23
-15z"/>
<path d="M2281 3719 c-22 -63 -6 -134 38 -174 18 -15 36 -19 84 -18 50 1 76 9
152 47 50 25 118 70 150 99 32 28 56 45 53 35 -4 -9 -4 -19 -1 -22 8 -8 55 18
77 43 27 30 4 26 -24 -4 -28 -30 -40 -32 -40 -5 0 26 -16 26 -32 -1 -21 -33
-112 -97 -200 -139 -116 -56 -136 -53 -67 11 l54 50 -63 -50 c-41 -34 -72 -51
-91 -51 -54 0 -51 18 18 87 l66 66 -69 -63 c-64 -60 -69 -63 -82 -45 -23 31
-17 46 39 105 l52 55 -52 -49 c-29 -28 -55 -47 -58 -45 -3 3 1 27 9 52 16 52
4 65 -13 16z"/>
<path d="M4020 3700 c0 -6 13 -10 29 -10 15 0 50 -2 77 -5 34 -3 41 -2 24 3
-42 14 -130 22 -130 12z"/>
<path d="M6730 2156 c0 -59 -4 -106 -9 -106 -5 0 -32 38 -60 84 -56 91 -74
111 -95 103 -10 -4 -15 -30 -18 -99 -5 -129 0 -158 23 -158 17 0 19 9 19 88 1
99 -2 99 70 -15 45 -72 68 -89 96 -68 17 12 19 27 19 142 0 125 -1 128 -22
131 -23 3 -23 2 -23 -102z"/>
<path d="M7162 2253 c-35 -7 -89 -66 -96 -107 -20 -105 60 -187 162 -165 54
11 73 36 70 88 -3 42 -6 46 -36 55 -43 12 -90 -7 -72 -29 7 -8 25 -15 41 -15
31 0 35 -10 19 -41 -15 -28 -72 -25 -107 5 -23 20 -28 32 -28 71 0 60 35 95
96 95 27 0 42 5 46 16 11 29 -28 40 -95 27z"/>
<path d="M7627 2254 c-4 -4 -7 -65 -7 -134 0 -96 3 -130 14 -139 28 -24 37 12
34 145 -3 107 -6 129 -18 132 -9 1 -19 0 -23 -4z"/>
<path d="M6015 2215 c-45 -44 -25 -100 43 -124 83 -29 92 -34 92 -52 0 -15 -7
-19 -32 -19 -18 0 -39 4 -47 9 -18 12 -41 3 -41 -15 0 -20 36 -35 87 -37 36
-2 48 2 64 22 41 50 18 90 -71 119 -61 19 -81 42 -61 66 14 17 53 20 86 7 45
-18 63 18 20 37 -46 21 -113 15 -140 -13z"/>
<path d="M8001 2226 c-8 -9 -11 -52 -9 -127 3 -106 4 -114 23 -114 16 0 21 8
25 40 7 52 16 65 43 65 36 0 49 -15 54 -64 5 -36 9 -46 24 -46 37 0 21 105
-20 137 -21 16 -74 16 -89 1 -9 -9 -12 0 -12 44 0 61 -18 90 -39 64z"/>
<path d="M6281 2216 c-9 -11 -14 -47 -14 -113 0 -82 3 -98 19 -110 24 -17 86
-17 130 2 66 28 83 140 30 202 -20 23 -33 27 -88 31 -50 3 -67 1 -77 -12z
m124 -51 c29 -28 33 -79 10 -111 -17 -25 -72 -39 -91 -23 -14 12 -20 113 -8
143 10 25 61 20 89 -9z"/>
<path d="M7803 2173 c-54 -10 -84 -109 -48 -160 23 -32 77 -47 121 -33 47 16
38 35 -17 35 -24 1 -50 4 -57 9 -25 15 -11 26 34 26 25 0 54 5 65 10 22 12 25
56 5 82 -12 16 -59 40 -74 37 -4 -1 -17 -4 -29 -6z m65 -55 c22 -22 13 -28
-38 -28 -48 0 -50 1 -40 20 12 23 59 27 78 8z"/>
<path d="M7385 2115 c-27 -27 -33 -79 -12 -106 32 -42 90 -47 129 -12 16 14
18 14 24 -1 7 -17 29 -22 38 -7 9 14 -24 98 -49 125 -33 36 -96 36 -130 1z
m95 -29 c21 -26 8 -61 -23 -64 -49 -6 -73 30 -41 62 19 20 48 20 64 2z"/>
<path d="M6050 1586 c0 -106 3 -135 14 -139 23 -9 26 2 26 90 0 47 4 83 9 81
5 -1 24 -25 43 -53 44 -67 62 -65 113 10 l40 60 5 -90 c5 -84 7 -90 28 -93 22
-3 22 -1 22 95 0 139 -7 173 -35 173 -17 0 -33 -18 -67 -72 -24 -40 -49 -73
-54 -73 -5 0 -29 33 -53 73 -35 56 -49 72 -67 72 l-24 0 0 -134z"/>
<path d="M6957 1643 c-4 -3 -7 -36 -7 -73 0 -92 21 -120 90 -120 77 0 94 20
98 119 4 75 3 81 -15 81 -17 0 -21 -9 -26 -67 -8 -86 -36 -113 -83 -79 -15 11
-19 28 -21 73 -1 32 -2 61 -2 66 -1 9 -25 9 -34 0z"/>
<path d="M7426 1635 c-10 -26 -7 -99 5 -134 14 -39 35 -51 92 -51 34 0 49 6
67 25 20 22 24 36 24 98 1 66 -1 72 -19 72 -17 0 -20 -8 -23 -60 -3 -62 -21
-95 -51 -95 -35 0 -46 19 -51 87 -4 52 -9 69 -21 71 -9 2 -19 -4 -23 -13z"/>
<path d="M7994 1636 c-34 -15 -44 -33 -44 -77 0 -53 66 -93 116 -70 21 9 24 8
24 -12 0 -12 -4 -28 -9 -36 -9 -13 -51 -19 -81 -10 -28 8 -17 -35 11 -45 34
-12 73 -1 99 26 16 18 20 35 20 99 0 67 -3 82 -22 103 -28 32 -73 40 -114 22z
m80 -52 c10 -27 7 -43 -12 -53 -42 -22 -90 21 -62 54 17 20 66 19 74 -1z"/>
<path d="M6722 1633 c-24 -9 -42 -62 -42 -123 0 -57 1 -60 25 -60 24 0 25 3
25 58 0 62 11 82 45 82 34 0 45 -20 45 -83 0 -55 1 -58 23 -55 17 2 23 11 25
37 9 91 -29 152 -95 150 -21 0 -44 -3 -51 -6z"/>
<path d="M7251 1621 c-23 -23 -34 -70 -29 -126 2 -33 7 -41 26 -43 21 -3 22 0
22 55 0 32 4 63 8 70 4 6 25 13 47 15 32 2 40 7 40 23 0 30 -86 34 -114 6z"/>
<path d="M7742 1633 c-24 -9 -42 -62 -42 -123 0 -57 1 -60 25 -60 24 0 25 3
25 58 0 62 11 82 45 82 34 0 45 -20 45 -83 0 -55 1 -58 23 -55 17 2 23 11 25
37 9 91 -29 152 -95 150 -21 0 -44 -3 -51 -6z"/>
<path d="M6442 1587 c-22 -23 -29 -68 -16 -102 16 -42 105 -55 135 -19 10 12
13 12 24 -3 7 -9 19 -14 29 -10 15 6 14 11 -4 58 -28 74 -54 99 -105 99 -30 0
-47 -6 -63 -23z m102 -39 c14 -23 -3 -52 -33 -56 -42 -6 -67 38 -39 66 17 17
58 11 72 -10z"/>
</g>
</svg>
